<svg xmlns="http://www.w3.org/2000/svg" width="16" height="16" viewBox="0 0 16 16" fill="none">
  <path fill-rule="evenodd" clip-rule="evenodd" d="M7.33381 6.48485C6.8652 6.48485 6.48532 6.86473 6.48532 7.33333V13.3333C6.48532 13.8019 6.8652 14.1818 7.33381 14.1818H13.3338C13.8024 14.1818 14.1823 13.8019 14.1823 13.3333V7.33333C14.1823 6.86473 13.8024 6.48485 13.3338 6.48485H7.33381ZM5.51562 7.33333C5.51562 6.32918 6.32965 5.51515 7.33381 5.51515H13.3338C14.338 5.51515 15.152 6.32918 15.152 7.33333V13.3333C15.152 14.3375 14.338 15.1515 13.3338 15.1515H7.33381C6.32965 15.1515 5.51562 14.3375 5.51562 13.3333V7.33333Z" fill="#7B0E23"/>
  <path fill-rule="evenodd" clip-rule="evenodd" d="M2.66974 1.81818C2.44471 1.81818 2.2289 1.90757 2.06977 2.06669C1.91065 2.22581 1.82126 2.44163 1.82126 2.66666V8.66666C1.82126 8.89169 1.91065 9.10751 2.06977 9.26663C2.2289 9.42575 2.44471 9.51515 2.66974 9.51515H3.33641C3.60419 9.51515 3.82126 9.73222 3.82126 10C3.82126 10.2678 3.60419 10.4848 3.33641 10.4848H2.66974C2.18753 10.4848 1.72507 10.2933 1.3841 9.95231C1.04312 9.61134 0.851562 9.14887 0.851562 8.66666V2.66666C0.851562 2.18445 1.04312 1.72199 1.3841 1.38101C1.72507 1.04004 2.18753 0.84848 2.66974 0.84848H8.66974C9.15196 0.84848 9.61442 1.04004 9.95539 1.38101C10.2964 1.72199 10.4879 2.18445 10.4879 2.66666V3.33333C10.4879 3.6011 10.2709 3.81818 10.0031 3.81818C9.7353 3.81818 9.51823 3.6011 9.51823 3.33333V2.66666C9.51823 2.44163 9.42884 2.22581 9.26971 2.06669C9.11059 1.90757 8.89478 1.81818 8.66974 1.81818H2.66974Z" fill="#7B0E23"/>
</svg>
