<svg xmlns="http://www.w3.org/2000/svg" width="16" height="16" viewBox="0 0 16 16" fill="none">
  <path fill-rule="evenodd" clip-rule="evenodd" d="M11.9962 1.79048C11.1441 1.79048 10.4533 2.48124 10.4533 3.33333C10.4533 4.18543 11.1441 4.87619 11.9962 4.87619C12.8483 4.87619 13.5391 4.18543 13.5391 3.33333C13.5391 2.48124 12.8483 1.79048 11.9962 1.79048ZM9.53906 3.33333C9.53906 1.97629 10.6392 0.87619 11.9962 0.87619C13.3532 0.87619 14.4533 1.97629 14.4533 3.33333C14.4533 4.69038 13.3532 5.79048 11.9962 5.79048C10.6392 5.79048 9.53906 4.69038 9.53906 3.33333Z" fill="#7B0E23"/>
  <path fill-rule="evenodd" clip-rule="evenodd" d="M3.99621 6.45715C3.14411 6.45715 2.45335 7.14791 2.45335 8C2.45335 8.8521 3.14411 9.54286 3.99621 9.54286C4.8483 9.54286 5.53906 8.8521 5.53906 8C5.53906 7.14791 4.8483 6.45715 3.99621 6.45715ZM1.53906 8C1.53906 6.64296 2.63916 5.54286 3.99621 5.54286C5.35325 5.54286 6.45335 6.64296 6.45335 8C6.45335 9.35705 5.35325 10.4571 3.99621 10.4571C2.63916 10.4571 1.53906 9.35705 1.53906 8Z" fill="#7B0E23"/>
  <path fill-rule="evenodd" clip-rule="evenodd" d="M11.9962 11.1238C11.1441 11.1238 10.4533 11.8146 10.4533 12.6667C10.4533 13.5188 11.1441 14.2095 11.9962 14.2095C12.8483 14.2095 13.5391 13.5188 13.5391 12.6667C13.5391 11.8146 12.8483 11.1238 11.9962 11.1238ZM9.53906 12.6667C9.53906 11.3096 10.6392 10.2095 11.9962 10.2095C13.3532 10.2095 14.4533 11.3096 14.4533 12.6667C14.4533 14.0237 13.3532 15.1238 11.9962 15.1238C10.6392 15.1238 9.53906 14.0237 9.53906 12.6667Z" fill="#7B0E23"/>
  <path fill-rule="evenodd" clip-rule="evenodd" d="M5.32787 8.77651C5.45498 8.55837 5.73486 8.48458 5.953 8.6117L10.5063 11.265C10.7245 11.3921 10.7983 11.672 10.6712 11.8902C10.544 12.1083 10.2642 12.1821 10.046 12.055L5.49268 9.40165C5.27454 9.27453 5.20075 8.99465 5.32787 8.77651Z" fill="#7B0E23"/>
  <path fill-rule="evenodd" clip-rule="evenodd" d="M10.6643 4.10959C10.7916 4.32764 10.718 4.60757 10.4999 4.73483L5.95326 7.38816C5.7352 7.51541 5.45527 7.4418 5.32801 7.22374C5.20076 7.00569 5.27437 6.72576 5.49243 6.5985L10.0391 3.94517C10.2572 3.81792 10.5371 3.89153 10.6643 4.10959Z" fill="#7B0E23"/>
</svg>
