<svg width="260" height="135" viewBox="0 0 260 135" fill="none" xmlns="http://www.w3.org/2000/svg">
<g opacity="0.6">
<path d="M150.584 4.92862C150.584 7.62561 152.657 9.81196 155.216 9.81196C157.774 9.81196 159.848 7.62561 159.848 4.92862C159.848 2.23163 157.774 0.0452881 155.216 0.0452881C152.657 0.0452881 150.584 2.23163 150.584 4.92862Z" fill="#A4000A" fill-opacity="0.2"/>
<path d="M112.916 4.92874C112.916 7.62574 114.99 9.81208 117.548 9.81208C120.106 9.81208 122.18 7.62574 122.18 4.92874C122.18 2.23175 120.106 0.0454102 117.548 0.0454102C114.99 0.0454102 112.916 2.23175 112.916 4.92874Z" fill="#A4000A" fill-opacity="0.2"/>
<path d="M75.2907 4.92862C75.2907 7.62561 77.3645 9.81196 79.9227 9.81196C82.4809 9.81196 84.5547 7.62561 84.5547 4.92862C84.5547 2.23163 82.4809 0.0452881 79.9227 0.0452881C77.3645 0.0452881 75.2907 2.23163 75.2907 4.92862Z" fill="#A4000A" fill-opacity="0.2"/>
<path d="M42.2587 9.76667C39.7242 9.76667 37.6267 7.60142 37.6267 4.88333C37.6267 2.16525 39.6805 0 42.2587 0C44.8368 0 46.8906 2.16525 46.8906 4.88333C46.8906 7.60142 44.8368 9.76667 42.2587 9.76667Z" fill="#A4000A" fill-opacity="0.2"/>
<path d="M4.63365 9.76679C2.09917 9.76679 0.00168133 7.60154 0.00168133 4.88346C0.00168133 2.16537 2.05547 0.00012207 4.63365 0.00012207C7.21183 0.00012207 9.26562 2.16537 9.26562 4.88346C9.26562 7.60154 7.21183 9.76679 4.63365 9.76679Z" fill="#A4000A" fill-opacity="0.2"/>
<path d="M230.462 40.9551C227.927 40.9551 225.83 38.7899 225.83 36.0718C225.83 33.3537 227.884 31.1885 230.462 31.1885C233.04 31.1885 235.094 33.3537 235.094 36.0718C235.094 38.7899 233.04 40.9551 230.462 40.9551Z" fill="#A4000A" fill-opacity="0.2"/>
<path d="M192.837 40.955C190.302 40.955 188.205 38.7897 188.205 36.0716C188.205 33.3535 190.259 31.1883 192.837 31.1883C195.415 31.1883 197.469 33.3535 197.469 36.0716C197.469 38.7897 195.415 40.955 192.837 40.955Z" fill="#A4000A" fill-opacity="0.2"/>
<path d="M150.584 36.0717C150.584 38.7687 152.657 40.9551 155.216 40.9551C157.774 40.9551 159.848 38.7687 159.848 36.0717C159.848 33.3748 157.774 31.1884 155.216 31.1884C152.657 31.1884 150.584 33.3748 150.584 36.0717Z" fill="#A4000A" fill-opacity="0.2"/>
<path d="M112.916 36.0713C112.916 38.7683 114.99 40.9546 117.548 40.9546C120.106 40.9546 122.18 38.7683 122.18 36.0713C122.18 33.3743 120.106 31.1879 117.548 31.1879C114.99 31.1879 112.916 33.3743 112.916 36.0713Z" fill="#A4000A" fill-opacity="0.2"/>
<path d="M75.2907 36.0718C75.2907 38.7688 77.3645 40.9551 79.9227 40.9551C82.4809 40.9551 84.5547 38.7688 84.5547 36.0718C84.5547 33.3748 82.4809 31.1885 79.9227 31.1885C77.3645 31.1885 75.2907 33.3748 75.2907 36.0718Z" fill="#A4000A" fill-opacity="0.2"/>
<path d="M42.2587 40.9546C39.7242 40.9546 37.6267 38.7893 37.6267 36.0713C37.6267 33.3532 39.6805 31.1879 42.2587 31.1879C44.8368 31.1879 46.8906 33.3532 46.8906 36.0713C46.8906 38.7893 44.8368 40.9546 42.2587 40.9546Z" fill="#A4000A" fill-opacity="0.2"/>
<path d="M4.63365 40.9545C2.09917 40.9545 0.00168133 38.7893 0.00168133 36.0712C0.00168133 33.3531 2.05547 31.1879 4.63365 31.1879C7.21183 31.1879 9.26562 33.3531 9.26562 36.0712C9.26562 38.7893 7.21183 40.9545 4.63365 40.9545Z" fill="#A4000A" fill-opacity="0.2"/>
<path d="M230.462 72.1451C227.927 72.1451 225.83 69.9798 225.83 67.2618C225.83 64.5437 227.884 62.3784 230.462 62.3784C233.04 62.3784 235.094 64.5437 235.094 67.2618C235.094 69.9798 233.04 72.1451 230.462 72.1451Z" fill="#A4000A" fill-opacity="0.2"/>
<path d="M192.837 72.1454C190.302 72.1454 188.205 69.9801 188.205 67.2621C188.205 64.544 190.259 62.3787 192.837 62.3787C195.415 62.3787 197.469 64.544 197.469 67.2621C197.469 69.9801 195.415 72.1454 192.837 72.1454Z" fill="#A4000A" fill-opacity="0.2"/>
<path d="M155.216 72.1454C152.681 72.1454 150.584 69.9801 150.584 67.2621C150.584 64.544 152.637 62.3787 155.216 62.3787C157.794 62.3787 159.848 64.544 159.848 67.2621C159.848 69.9801 157.794 72.1454 155.216 72.1454Z" fill="#A4000A" fill-opacity="0.2"/>
<path d="M230.466 103.286C227.931 103.286 225.834 101.121 225.834 98.4026C225.834 95.6845 227.887 93.5192 230.466 93.5192C233.044 93.5192 235.098 95.6845 235.098 98.4026C235.098 101.121 233.044 103.286 230.466 103.286Z" fill="#A4000A" fill-opacity="0.2"/>
<path d="M192.841 103.286C190.306 103.286 188.209 101.121 188.209 98.4027C188.209 95.6847 190.262 93.5194 192.841 93.5194C195.419 93.5194 197.473 95.6847 197.473 98.4027C197.473 101.121 195.419 103.286 192.841 103.286Z" fill="#A4000A" fill-opacity="0.2"/>
<path d="M155.22 103.286C152.685 103.286 150.588 101.121 150.588 98.4027C150.588 95.6847 152.641 93.5194 155.22 93.5194C157.798 93.5194 159.852 95.6847 159.852 98.4027C159.852 101.121 157.798 103.286 155.22 103.286Z" fill="#A4000A" fill-opacity="0.2"/>
<path d="M230.466 134.475C227.931 134.475 225.834 132.309 225.834 129.591C225.834 126.873 227.887 124.708 230.466 124.708C233.044 124.708 235.098 126.873 235.098 129.591C235.098 132.309 233.044 134.475 230.466 134.475Z" fill="#A4000A" fill-opacity="0.2"/>
<path d="M192.841 134.474C190.306 134.474 188.209 132.309 188.209 129.591C188.209 126.873 190.262 124.708 192.841 124.708C195.419 124.708 197.473 126.873 197.473 129.591C197.473 132.309 195.419 134.474 192.841 134.474Z" fill="#A4000A" fill-opacity="0.2"/>
<path d="M150.588 129.636C150.588 132.333 152.661 134.519 155.22 134.519C157.778 134.519 159.852 132.333 159.852 129.636C159.852 126.939 157.778 124.752 155.22 124.752C152.661 124.752 150.588 126.939 150.588 129.636Z" fill="#A4000A" fill-opacity="0.2"/>
<path d="M112.92 129.636C112.92 132.333 114.993 134.519 117.552 134.519C120.11 134.519 122.184 132.333 122.184 129.636C122.184 126.939 120.11 124.752 117.552 124.752C114.993 124.752 112.92 126.939 112.92 129.636Z" fill="#A4000A" fill-opacity="0.2"/>
<path d="M75.2985 129.636C75.2985 132.333 77.3724 134.519 79.9305 134.519C82.4887 134.519 84.5625 132.333 84.5625 129.636C84.5625 126.939 82.4887 124.752 79.9305 124.752C77.3724 124.752 75.2985 126.939 75.2985 129.636Z" fill="#A4000A" fill-opacity="0.2"/>
</g>
</svg>
