<svg width="222" height="637" viewBox="0 0 222 637" fill="none" xmlns="http://www.w3.org/2000/svg">
<path d="M218.116 398.172L189.706 443.962L204.857 323.08L218.116 398.172Z" stroke="#B9040F" stroke-opacity="0.2" stroke-width="0.5"/>
<path d="M200.459 171.099L191.232 241.54L162.335 179.585L174.147 87.6675L200.459 171.099Z" stroke="#B9040F" stroke-opacity="0.2" stroke-width="0.5"/>
<path d="M150.706 22.9463L162.975 44.418L165.423 62.4502L151.434 58.3428L151.392 58.3301L151.349 58.333L124.68 59.8145L124.624 59.8174L124.575 59.8438L1.97266 125.527C-7.39045 117.985 -39.6021 89.0427 -62.3955 68.1807L-14.0137 34.1904L60.9277 11.6396L129.048 0.268555L150.706 22.9463Z" stroke="#B9040F" stroke-opacity="0.2" stroke-width="0.5"/>
<path d="M165.449 73.3538L152.275 176.352L79.9492 196.595L79.8779 196.615L79.8291 196.67L-51.126 344.493L-51.1582 344.53L-51.1748 344.575L-105.215 494.975L-125.144 484.338L-132.744 447.468L-105.555 337.576L-101.424 321.045L-29.8672 187.504L5.19336 135.709L127.497 70.1146L150.194 68.8675L165.449 73.3538Z" stroke="#B9040F" stroke-opacity="0.2" stroke-width="0.5"/>
<path d="M-35.8809 602.466L-58.5869 579.534L-79.8818 514.74L-79.9033 514.674L-79.957 514.628L-96.2383 500.722L-42.0615 350.028L85.6211 205.829L115.167 197.547L-35.8809 602.466Z" stroke="#B9040F" stroke-opacity="0.2" stroke-width="0.5"/>
<path d="M189.194 261.31L199.209 305.806L180.872 452.5L169.168 469.546L169.153 469.566L169.144 469.589L106.153 618.806L68.2441 636.74L21.4795 628.547L21.4678 628.546L-10.0312 624.565L-27.6182 610.023L127.507 194.078L154.191 186.647L189.194 261.31Z" stroke="#B9040F" stroke-opacity="0.2" stroke-width="0.5"/>
<path d="M221.206 439.594C216.438 463.89 213.704 478.235 213.124 482.387C212.134 484.87 206.717 495.452 199.969 508.338C193.206 521.25 185.12 536.453 178.854 548.074L168.385 560.704L138.318 593.05L123.151 605.399L178.142 474.938L190.894 456.267L190.938 456.202V456.082L217.213 413.523L221.206 439.594Z" stroke="#B9040F" stroke-opacity="0.2" stroke-width="0.5"/>
</svg>
