<svg width="160" height="82" viewBox="0 0 160 82" fill="none" xmlns="http://www.w3.org/2000/svg">
<g opacity="0.6">
<path d="M83.4042 3.00437C83.4042 4.6484 84.5065 5.98115 85.8662 5.98115C87.2259 5.98115 88.3281 4.6484 88.3281 3.00437C88.3281 1.36034 87.2259 0.0275879 85.8662 0.0275879C84.5065 0.0275879 83.4042 1.36034 83.4042 3.00437Z" fill="#A4000A" fill-opacity="0.2"/>
<path d="M63.3847 3.00437C63.3847 4.6484 64.4869 5.98115 65.8466 5.98115C67.2063 5.98115 68.3086 4.6484 68.3086 3.00437C68.3086 1.36034 67.2063 0.0275879 65.8466 0.0275879C64.4869 0.0275879 63.3847 1.36034 63.3847 3.00437Z" fill="#A4000A" fill-opacity="0.2"/>
<path d="M43.3847 3.00437C43.3847 4.6484 44.487 5.98115 45.8466 5.98115C47.2063 5.98115 48.3086 4.6484 48.3086 3.00437C48.3086 1.36034 47.2063 0.0275879 45.8466 0.0275879C44.487 0.0275879 43.3847 1.36034 43.3847 3.00437Z" fill="#A4000A" fill-opacity="0.2"/>
<path d="M25.8271 5.95356C24.48 5.95356 23.3652 4.63367 23.3652 2.97678C23.3652 1.31989 24.4568 0 25.8271 0C27.1974 0 28.2891 1.31989 28.2891 2.97678C28.2891 4.63367 27.1974 5.95356 25.8271 5.95356Z" fill="#A4000A" fill-opacity="0.2"/>
<path d="M5.83102 5.95356C4.48392 5.95356 3.36908 4.63367 3.36908 2.97678C3.36908 1.31989 4.46069 0 5.83102 0C7.20136 0 8.29297 1.31989 8.29297 2.97678C8.29297 4.63367 7.20136 5.95356 5.83102 5.95356Z" fill="#A4000A" fill-opacity="0.2"/>
<path d="M140.057 21.9883C140.057 23.6323 141.159 24.965 142.519 24.965C143.878 24.965 144.98 23.6323 144.98 21.9883C144.98 20.3442 143.878 19.0115 142.519 19.0115C141.159 19.0115 140.057 20.3442 140.057 21.9883Z" fill="#A4000A" fill-opacity="0.2"/>
<path d="M122.495 24.9655C121.148 24.9655 120.033 23.6456 120.033 21.9887C120.033 20.3319 121.125 19.012 122.495 19.012C123.865 19.012 124.957 20.3319 124.957 21.9887C124.957 23.6456 123.865 24.9655 122.495 24.9655Z" fill="#A4000A" fill-opacity="0.2"/>
<path d="M102.499 24.9654C101.152 24.9654 100.037 23.6455 100.037 21.9886C100.037 20.3317 101.129 19.0118 102.499 19.0118C103.869 19.0118 104.961 20.3317 104.961 21.9886C104.961 23.6455 103.869 24.9654 102.499 24.9654Z" fill="#A4000A" fill-opacity="0.2"/>
<path d="M80.0409 21.9887C80.0409 23.6328 81.1432 24.9655 82.5029 24.9655C83.8626 24.9655 84.9648 23.6328 84.9648 21.9887C84.9648 20.3447 83.8626 19.012 82.5029 19.012C81.1432 19.012 80.0409 20.3447 80.0409 21.9887Z" fill="#A4000A" fill-opacity="0.2"/>
<path d="M60.0175 21.9883C60.0175 23.6323 61.1197 24.965 62.4794 24.965C63.8391 24.965 64.9414 23.6323 64.9414 21.9883C64.9414 20.3442 63.8391 19.0115 62.4794 19.0115C61.1197 19.0115 60.0175 20.3442 60.0175 21.9883Z" fill="#A4000A" fill-opacity="0.2"/>
<path d="M40.0214 21.9887C40.0214 23.6328 41.1237 24.9655 42.4834 24.9655C43.8431 24.9655 44.9453 23.6328 44.9453 21.9887C44.9453 20.3447 43.8431 19.012 42.4834 19.012C41.1237 19.012 40.0214 20.3447 40.0214 21.9887Z" fill="#A4000A" fill-opacity="0.2"/>
<path d="M22.4638 24.965C21.1167 24.965 20.0019 23.6451 20.0019 21.9883C20.0019 20.3314 21.0935 19.0115 22.4638 19.0115C23.8342 19.0115 24.9258 20.3314 24.9258 21.9883C24.9258 23.6451 23.8342 24.965 22.4638 24.965Z" fill="#A4000A" fill-opacity="0.2"/>
<path d="M2.46384 24.965C1.11673 24.965 0.00189352 23.6451 0.00189352 21.9883C0.00189352 20.3314 1.09351 19.0115 2.46384 19.0115C3.83417 19.0115 4.92578 20.3314 4.92578 21.9883C4.92578 23.6451 3.83417 24.965 2.46384 24.965Z" fill="#A4000A" fill-opacity="0.2"/>
<path d="M142.519 43.9785C141.171 43.9785 140.057 42.6586 140.057 41.0017C140.057 39.3448 141.148 38.0249 142.519 38.0249C143.889 38.0249 144.98 39.3448 144.98 41.0017C144.98 42.6586 143.889 43.9785 142.519 43.9785Z" fill="#A4000A" fill-opacity="0.2"/>
<path d="M122.495 43.9781C121.148 43.9781 120.033 42.6582 120.033 41.0013C120.033 39.3444 121.125 38.0245 122.495 38.0245C123.865 38.0245 124.957 39.3444 124.957 41.0013C124.957 42.6582 123.865 43.9781 122.495 43.9781Z" fill="#A4000A" fill-opacity="0.2"/>
<path d="M102.499 43.9785C101.152 43.9785 100.037 42.6586 100.037 41.0017C100.037 39.3448 101.129 38.0249 102.499 38.0249C103.869 38.0249 104.961 39.3448 104.961 41.0017C104.961 42.6586 103.869 43.9785 102.499 43.9785Z" fill="#A4000A" fill-opacity="0.2"/>
<path d="M82.5029 43.9785C81.1558 43.9785 80.0409 42.6586 80.0409 41.0017C80.0409 39.3448 81.1326 38.0249 82.5029 38.0249C83.8732 38.0249 84.9648 39.3448 84.9648 41.0017C84.9648 42.6586 83.8732 43.9785 82.5029 43.9785Z" fill="#A4000A" fill-opacity="0.2"/>
<path d="M146.081 62.9611C144.734 62.9611 143.619 61.6412 143.619 59.9843C143.619 58.3275 144.711 57.0076 146.081 57.0076C147.451 57.0076 148.543 58.3275 148.543 59.9843C148.543 61.6412 147.451 62.9611 146.081 62.9611Z" fill="#A4000A" fill-opacity="0.2"/>
<path d="M126.058 62.9609C124.71 62.9609 123.596 61.641 123.596 59.9841C123.596 58.3272 124.687 57.0073 126.058 57.0073C127.428 57.0073 128.52 58.3272 128.52 59.9841C128.52 61.641 127.428 62.9609 126.058 62.9609Z" fill="#A4000A" fill-opacity="0.2"/>
<path d="M106.061 62.9611C104.714 62.9611 103.6 61.6412 103.6 59.9843C103.6 58.3275 104.691 57.0076 106.061 57.0076C107.432 57.0076 108.523 58.3275 108.523 59.9843C108.523 61.6412 107.432 62.9611 106.061 62.9611Z" fill="#A4000A" fill-opacity="0.2"/>
<path d="M86.0654 62.9611C84.7183 62.9611 83.6034 61.6412 83.6034 59.9843C83.6034 58.3275 84.6951 57.0076 86.0654 57.0076C87.4357 57.0076 88.5273 58.3275 88.5273 59.9843C88.5273 61.6412 87.4357 62.9611 86.0654 62.9611Z" fill="#A4000A" fill-opacity="0.2"/>
<path d="M143.619 79.0232C143.619 80.6672 144.721 81.9999 146.081 81.9999C147.441 81.9999 148.543 80.6672 148.543 79.0232C148.543 77.3791 147.441 76.0464 146.081 76.0464C144.721 76.0464 143.619 77.3791 143.619 79.0232Z" fill="#A4000A" fill-opacity="0.2"/>
<path d="M126.058 81.9728C124.71 81.9728 123.596 80.653 123.596 78.9961C123.596 77.3392 124.687 76.0193 126.058 76.0193C127.428 76.0193 128.52 77.3392 128.52 78.9961C128.52 80.653 127.428 81.9728 126.058 81.9728Z" fill="#A4000A" fill-opacity="0.2"/>
<path d="M106.061 81.9727C104.714 81.9727 103.6 80.6528 103.6 78.9959C103.6 77.3391 104.691 76.0192 106.061 76.0192C107.432 76.0192 108.523 77.3391 108.523 78.9959C108.523 80.6528 107.432 81.9727 106.061 81.9727Z" fill="#A4000A" fill-opacity="0.2"/>
<path d="M83.6034 79.0232C83.6034 80.6672 84.7057 81.9999 86.0654 81.9999C87.4251 81.9999 88.5273 80.6672 88.5273 79.0232C88.5273 77.3791 87.4251 76.0464 86.0654 76.0464C84.7057 76.0464 83.6034 77.3791 83.6034 79.0232Z" fill="#A4000A" fill-opacity="0.2"/>
<path d="M63.58 79.0232C63.58 80.6672 64.6822 81.9999 66.0419 81.9999C67.4016 81.9999 68.5039 80.6672 68.5039 79.0232C68.5039 77.3791 67.4016 76.0464 66.0419 76.0464C64.6822 76.0464 63.58 77.3791 63.58 79.0232Z" fill="#A4000A" fill-opacity="0.2"/>
<path d="M43.5839 79.023C43.5839 80.6671 44.6862 81.9998 46.0459 81.9998C47.4056 81.9998 48.5078 80.6671 48.5078 79.023C48.5078 77.379 47.4056 76.0463 46.0459 76.0463C44.6862 76.0463 43.5839 77.379 43.5839 79.023Z" fill="#A4000A" fill-opacity="0.2"/>
</g>
</svg>
