<svg xmlns="http://www.w3.org/2000/svg" width="78" height="207" viewBox="0 0 78 207" fill="none">
  <path d="M75.9424 129.355L67.0576 143.535L71.7959 106.103L75.9424 129.355Z" stroke="#B9040F" stroke-opacity="0.2" stroke-width="0.5"/>
  <path d="M72.0449 55.6151L69.0967 77.9012L59.8779 58.33L63.6504 29.2577L72.0449 55.6151Z" stroke="#B9040F" stroke-opacity="0.2" stroke-width="0.5"/>
  <path d="M54.4141 7.55957L58.4121 14.4893L59.1768 20.0586L54.834 18.7969L54.793 18.7852L54.751 18.7871L45.998 19.2686L45.9434 19.2715L45.8945 19.2979L5.75781 40.5898C2.60618 38.0587 -7.71189 28.8802 -15.1152 22.1729L0.566406 11.2637L25.123 3.94727L47.3818 0.267578L54.4141 7.55957Z" stroke="#B9040F" stroke-opacity="0.2" stroke-width="0.5"/>
  <path d="M-17.4053 25.7161C-12.3516 30.2673 -1.73013 39.7974 2.46875 43.1975L-7.64258 57.9983L-11.9463 57.6047L-12.0449 57.595L-12.123 57.6565L-18.9678 63.0266L-19.0039 63.0549L-19.0273 63.094L-22.5898 68.9602L-24.6523 59.1614L-20.9697 47.8938L-20.9639 47.8752L-20.96 47.8557L-17.4053 25.7161Z" stroke="#B9040F" stroke-opacity="0.2" stroke-width="0.5"/>
  <path d="M58.7568 23.9585L54.4668 57.1743L30.8389 63.7231L30.7686 63.7427L30.7197 63.7974L-12.2559 111.834L-12.2881 111.87L-12.3047 111.916L-29.9736 160.608L-36.2734 157.279L-38.7441 145.411L-29.8311 109.74L-29.8301 109.741L-28.4795 104.387L-5.01172 61.02L6.46484 44.23L46.5332 22.9507L53.917 22.5493L58.7568 23.9585Z" stroke="#B9040F" stroke-opacity="0.2" stroke-width="0.5"/>
  <path d="M-7.41992 195.475L-14.6602 188.233L-21.6348 167.217L-21.6562 167.15L-21.71 167.105L-26.9639 162.662L-9.23535 113.833L32.6123 67.0352L41.9414 64.4463L-7.41992 195.475Z" stroke="#B9040F" stroke-opacity="0.2" stroke-width="0.5"/>
  <path d="M67.3105 84.9683L70.5879 99.3833L64.5781 146.983L60.7617 152.488L60.7471 152.508L60.7373 152.532L40.0908 200.96L27.7559 206.74L12.4609 204.087V204.086L12.4492 204.085L2.15918 202.797L-3.48047 198.179L47.3535 63.2075L55.8936 60.853L67.3105 84.9683Z" stroke="#B9040F" stroke-opacity="0.2" stroke-width="0.5"/>
  <path d="M77.7471 142.847C76.1959 150.674 75.3009 155.324 75.1025 156.708C74.7663 157.532 73.004 160.943 70.7998 165.111C68.5831 169.302 65.9313 174.236 63.876 178.01L60.4561 182.095L50.5996 192.594L46.1572 196.177L63.9336 154.417L68.1074 148.365L68.1523 148.301V148.256L76.5098 134.851L77.7471 142.847Z" stroke="#B9040F" stroke-opacity="0.2" stroke-width="0.5"/>
</svg>
