<svg width="24" height="24" viewBox="0 0 24 24" fill="none" xmlns="http://www.w3.org/2000/svg">
<path d="M19.3714 4.03518C18.884 3.59239 16.7804 2.27062 12.3911 2.25148C12.3911 2.25148 7.19387 1.90998 4.67078 4.19531C3.26617 5.58182 2.79309 7.64366 2.74053 10.1601C2.68796 12.6766 2.41992 17.4826 7.02225 18.7612C7.02225 18.7612 7.00449 22.3296 7.00206 22.6433C7.00206 22.8626 7.03687 23.0126 7.16219 23.0436C7.2527 23.0655 7.38741 23.0189 7.50264 22.9043C8.23819 22.1653 10.5942 19.323 10.5942 19.323C13.7557 19.5294 16.2704 18.9053 16.5409 18.8169C17.1772 18.6129 20.6249 18.3152 21.2101 13.6012C21.8168 8.7395 20.9908 5.42169 19.3714 4.03518Z" fill="white"/>
<path d="M20.5167 2.85981C19.9402 2.3279 17.6107 0.636794 12.4218 0.613819C12.4218 0.613819 6.30276 0.244825 3.31983 2.98095C1.65936 4.64177 1.07523 7.07191 1.01362 10.0848C0.952003 13.0976 0.872286 18.7439 6.31495 20.2749H6.32017L6.31669 22.6111C6.31669 22.6111 6.28188 23.5569 6.90464 23.7497C7.65795 23.9837 8.10004 23.2648 8.81923 22.4899C9.21399 22.0645 9.75912 21.4397 10.1699 20.9621C13.8922 21.2754 16.755 20.5593 17.0802 20.4535C17.8317 20.2098 22.0846 19.6647 22.7763 14.0191C23.4902 8.19978 22.4309 4.51889 20.5167 2.85981ZM21.1475 13.6017C20.5637 18.3158 17.1143 18.612 16.4783 18.816C16.2078 18.903 13.6934 19.5286 10.5316 19.3222C10.5316 19.3222 8.17558 22.1645 7.43968 22.9035C7.32481 23.0191 7.18974 23.0657 7.09958 23.0427C6.97287 23.0117 6.93806 22.8617 6.93945 22.6424C6.94154 22.3291 6.95964 18.7603 6.95964 18.7603C2.35557 17.4821 2.62396 12.6764 2.67618 10.16C2.7284 7.6435 3.20113 5.58201 4.60539 4.1955C7.12847 1.91017 12.3261 2.25166 12.3261 2.25166C16.7154 2.27081 18.8186 3.59257 19.3063 4.03537C20.9257 5.42188 21.7507 8.73969 21.1475 13.6003V13.6017Z" fill="#7360F2"/>
<path d="M14.5577 10.2465C14.4825 10.2466 14.4101 10.2176 14.3557 10.1658C14.3012 10.114 14.2687 10.0432 14.2649 9.96806C14.2151 8.97213 13.7459 8.48443 12.7883 8.43291C12.712 8.42684 12.641 8.3912 12.5907 8.33359C12.5403 8.27598 12.5144 8.20096 12.5185 8.12453C12.5226 8.04811 12.5565 7.97631 12.6128 7.92448C12.6691 7.87264 12.7434 7.84485 12.8199 7.84704C14.0836 7.91667 14.786 8.63829 14.8508 9.93882C14.8527 9.97731 14.847 10.0158 14.8341 10.0521C14.8211 10.0884 14.8011 10.1218 14.7753 10.1504C14.7494 10.1789 14.7182 10.2021 14.6834 10.2186C14.6485 10.2352 14.6108 10.2446 14.5723 10.2465H14.5577Z" fill="#7360F2"/>
<path d="M16.0637 10.7514H16.0567C15.9789 10.7496 15.9051 10.717 15.8513 10.6607C15.7976 10.6044 15.7684 10.5291 15.7702 10.4514C15.7928 9.44847 15.5063 8.63633 14.8944 7.96866C14.2824 7.30099 13.4487 6.93896 12.3372 6.8575C12.2594 6.85182 12.1871 6.8155 12.1362 6.75651C12.0852 6.69753 12.0598 6.62072 12.0655 6.54299C12.0712 6.46525 12.1075 6.39295 12.1665 6.342C12.2254 6.29105 12.3023 6.26561 12.38 6.27129C13.6307 6.36284 14.6222 6.80041 15.3271 7.57147C16.032 8.34253 16.3825 9.31793 16.3568 10.4635C16.3552 10.5403 16.3237 10.6134 16.2689 10.6672C16.2141 10.721 16.1405 10.7513 16.0637 10.7514Z" fill="#7360F2"/>
<path d="M17.6047 11.3535C17.5273 11.3534 17.453 11.3228 17.3981 11.2682C17.3431 11.2137 17.3119 11.1396 17.3113 11.0622C17.2977 9.26836 16.7811 7.89821 15.7319 6.87408C14.6953 5.86457 13.3857 5.34659 11.839 5.33545C11.8005 5.33531 11.7624 5.32758 11.7268 5.31271C11.6913 5.29783 11.659 5.2761 11.6318 5.24876C11.577 5.19353 11.5464 5.11878 11.5466 5.04095C11.5469 4.96312 11.5781 4.88859 11.6333 4.83375C11.6886 4.77891 11.7633 4.74826 11.8411 4.74854H11.8436C13.5465 4.76107 14.9925 5.33475 16.1417 6.45426C17.2908 7.57378 17.8832 9.12564 17.8986 11.0587C17.8991 11.1365 17.8688 11.2113 17.8142 11.2667C17.7596 11.3221 17.6853 11.3536 17.6075 11.3542L17.6047 11.3535Z" fill="#7360F2"/>
<path d="M12.8622 13.8837C12.8622 13.8837 13.2747 13.9185 13.4968 13.6449L13.9299 13.1001C14.1387 12.83 14.6428 12.6577 15.1364 12.9327C15.5063 13.1436 15.8654 13.373 16.2124 13.6198C16.54 13.8607 17.2108 14.4205 17.2129 14.4205C17.5324 14.6903 17.6062 15.0864 17.3887 15.5041C17.3887 15.5066 17.3869 15.5108 17.3869 15.5128C17.1473 15.9282 16.8431 16.3029 16.4857 16.6226C16.4815 16.6247 16.4815 16.6268 16.4777 16.6289C16.1672 16.8883 15.8621 17.0358 15.5625 17.0713C15.5184 17.079 15.4735 17.0818 15.4288 17.0797C15.2967 17.0809 15.1653 17.0607 15.0396 17.0198L15.0299 17.0055C14.5683 16.8753 13.7976 16.5495 12.5141 15.8415C11.7714 15.4365 11.0643 14.9695 10.4004 14.4452C10.0676 14.1826 9.75023 13.9011 9.44972 13.6021L9.4177 13.5701L9.38567 13.538L9.35365 13.506C9.34286 13.4956 9.33241 13.4848 9.32162 13.474C9.02263 13.1735 8.74113 12.8561 8.47851 12.5233C7.95432 11.8595 7.48724 11.1525 7.08225 10.4099C6.3742 9.12611 6.04837 8.3561 5.91817 7.89381L5.9039 7.88407C5.86309 7.75842 5.84299 7.62698 5.84438 7.49488C5.84194 7.45016 5.84463 7.40532 5.85238 7.36121C5.88975 7.06207 6.03746 6.75678 6.29552 6.44534C6.29761 6.44151 6.2997 6.44151 6.30179 6.43733C6.62146 6.07993 6.99608 5.77581 7.41156 5.53643C7.41364 5.53643 7.41782 5.53434 7.42026 5.53434C7.83799 5.31677 8.23413 5.39057 8.50357 5.70839C8.50566 5.71048 9.06437 6.38129 9.30422 6.70886C9.55111 7.05617 9.78045 7.41564 9.99138 7.7859C10.2664 8.27917 10.0941 8.78427 9.82394 8.99244L9.27915 9.42549C9.00415 9.64758 9.04035 10.0601 9.04035 10.0601C9.04035 10.0601 9.84726 13.114 12.8622 13.8837Z" fill="#7360F2"/>
</svg>
