<svg xmlns="http://www.w3.org/2000/svg" width="54" height="54" viewBox="0 0 54 54" fill="none">
  <path d="M11.25 25.875C10.6287 25.875 10.125 26.3787 10.125 27C10.125 27.6213 10.6287 28.125 11.25 28.125H42.75C43.3713 28.125 43.875 27.6213 43.875 27C43.875 26.3787 43.3713 25.875 42.75 25.875H11.25Z" fill="#555555"/>
  <path d="M27.7955 10.4545C27.3562 10.0152 26.644 10.0152 26.2047 10.4545L10.4547 26.2045C10.0153 26.6438 10.0153 27.356 10.4547 27.7953L26.2047 43.5453C26.644 43.9847 27.3562 43.9847 27.7955 43.5453C28.2348 43.106 28.2348 42.3938 27.7955 41.9545L12.8409 26.9999L27.7955 12.0453C28.2348 11.606 28.2348 10.8938 27.7955 10.4545Z" fill="#555555"/>
</svg>
