<svg xmlns="http://www.w3.org/2000/svg" width="54" height="54" viewBox="0 0 54 54" fill="none">
  <path d="M42.75 25.875C43.3713 25.875 43.875 26.3787 43.875 27C43.875 27.6213 43.3713 28.125 42.75 28.125H11.25C10.6287 28.125 10.125 27.6213 10.125 27C10.125 26.3787 10.6287 25.875 11.25 25.875H42.75Z" fill="#7B0E23"/>
  <path d="M26.2045 10.4545C26.6438 10.0152 27.356 10.0152 27.7953 10.4545L43.5453 26.2045C43.9847 26.6438 43.9847 27.356 43.5453 27.7953L27.7953 43.5453C27.356 43.9847 26.6438 43.9847 26.2045 43.5453C25.7652 43.106 25.7652 42.3938 26.2045 41.9545L41.1591 26.9999L26.2045 12.0453C25.7652 11.606 25.7652 10.8938 26.2045 10.4545Z" fill="#7B0E23"/>
</svg>
