<svg width="153" height="95" viewBox="0 0 153 95" fill="none" xmlns="http://www.w3.org/2000/svg">
<path d="M56.6664 49.8913L35.3284 13.0483C35.2911 12.9839 35.1984 12.9839 35.1611 13.0483L22.727 34.714C22.7106 34.7455 22.7106 34.7829 22.7285 34.8144L31.9297 49.9917C31.9476 50.0201 31.979 50.0381 32.0133 50.0381H56.5828C56.6575 50.0381 56.7038 49.9572 56.6664 49.8913Z" fill="#939393"/>
<path d="M31.5733 50.038H13.0977C13.0215 50.038 12.9752 50.1204 13.014 50.1848L22.2511 65.7695C22.2899 65.8324 22.3811 65.8324 22.4184 65.7695L31.657 50.1848C31.6958 50.1204 31.6495 50.038 31.5733 50.038Z" fill="#939393"/>
<path d="M112.986 56.4645L113.084 56.5154L113.652 53.3341C113.144 53.1109 112.666 52.9386 112.227 52.8218C111.782 52.702 111.32 52.6421 110.857 52.6421C109.85 52.6421 108.968 52.8608 108.238 53.2921C107.506 53.725 106.941 54.3091 106.56 55.0311C106.179 55.7545 105.987 56.5514 105.987 57.3991C105.987 57.5294 105.99 57.6238 105.994 57.6897C106.028 58.3083 106.209 58.8295 106.532 59.2384C106.857 59.6503 107.345 60.0457 107.981 60.4112C108.038 60.4516 108.12 60.5026 108.233 60.5715C108.519 60.7512 108.74 60.8965 108.889 61.0058C109.043 61.1167 109.172 61.2455 109.27 61.3878C109.372 61.5331 109.424 61.6993 109.424 61.8791C109.424 62.0513 109.382 62.2295 109.299 62.4093C109.215 62.5905 109.092 62.7418 108.931 62.8601C108.77 62.9784 108.571 63.0399 108.341 63.0399C108.126 63.0399 107.833 62.9754 107.472 62.8481C107.11 62.7223 106.733 62.5441 106.354 62.3194C105.994 62.1082 105.673 61.8731 105.396 61.6184L104.773 65.1398C105.207 65.4229 105.716 65.6505 106.288 65.8168C106.869 65.986 107.495 66.0714 108.148 66.0714C109.076 66.0714 109.913 65.8407 110.633 65.3839C111.353 64.9271 111.919 64.319 112.315 63.5776C112.709 62.8347 112.909 62.0393 112.909 61.214C112.909 61.1047 112.906 61.0208 112.902 60.9654C112.88 60.4726 112.76 60.0442 112.546 59.6893C112.331 59.3343 112.067 59.0332 111.762 58.7966C111.454 58.5569 111.042 58.2828 110.537 57.9833C110.235 57.7915 110.004 57.6343 109.85 57.5129C109.694 57.3916 109.578 57.2658 109.506 57.143C109.433 57.0172 109.397 56.8689 109.397 56.7011C109.397 56.418 109.494 56.1694 109.687 55.9597C109.88 55.7485 110.167 55.6407 110.539 55.6407C110.946 55.6407 111.387 55.7395 111.846 55.9313L111.85 55.9328C112.294 56.108 112.645 56.2892 112.986 56.4645Z" fill="#939393"/>
<path d="M131.112 65.8449L128.917 60.634C129.825 60.2521 130.498 59.4717 130.831 58.7498C131.166 58.0264 131.334 57.2295 131.334 56.3818C131.334 56.232 131.333 56.1212 131.327 56.0478C131.282 55.1086 130.974 54.3702 130.411 53.8565C129.848 53.3397 129.056 53.0791 128.058 53.0791H124.041L121.766 65.8449H124.86L125.693 61.1014L127.788 65.8449H131.112ZM126.633 58.961L125.993 58.943L126.684 55.2584H127.356C127.971 55.2584 128.284 55.6688 128.284 56.4791C128.284 56.8476 128.23 57.2265 128.124 57.604C128.018 57.9829 127.847 58.3065 127.619 58.5671C127.386 58.8292 127.09 58.9625 126.633 58.961Z" fill="#939393"/>
<path d="M69.526 54.0915C68.7761 53.419 67.678 53.079 66.2633 53.079H62.3925L60.1172 65.8448H63.9985C65.5163 65.8448 66.7966 65.4419 67.8095 64.6465C68.8224 63.8497 69.5783 62.8177 70.0579 61.576C70.5374 60.3329 70.781 59.0163 70.781 57.6593C70.781 57.532 70.775 57.3477 70.7645 57.0976C70.6913 55.775 70.276 54.7625 69.526 54.0915ZM67.0252 60.1966C66.828 60.89 66.5158 61.4862 66.096 61.967C65.6717 62.4508 65.1294 62.6979 64.4855 62.6979H64.0746L64.0821 62.656L65.2444 56.1645H65.6672C66.1886 56.1645 66.5904 56.3113 66.8623 56.6003C67.1313 56.8879 67.2836 57.3238 67.3105 57.8944C67.3165 57.9513 67.3195 58.0457 67.3195 58.1745C67.3195 58.8246 67.2209 59.5046 67.0252 60.1966Z" fill="#939393"/>
<path d="M75.6873 57.9466L76.0115 56.1102H79.5059L80.0556 53.0787H73.1596L70.8828 65.8445H77.8461L78.3869 62.8114H74.8253L74.8328 62.771L75.1719 60.8089H78.1643L78.6722 57.987H75.6799L75.6873 57.9466Z" fill="#939393"/>
<path d="M81.878 52.8929L79.5938 65.7426H82.7549L83.8156 58.9875L86.1133 65.8445H89.1102L91.4034 52.9768H88.3931L87.0411 60.0974L84.7538 52.8929H81.878Z" fill="#939393"/>
<path d="M92.5799 53.0787L92.0391 56.1117H94.4697L92.7352 65.8445H96.128L97.8625 56.1117H100.218L100.759 53.0787H92.5799Z" fill="#939393"/>
<path d="M103.221 65.8445L105.497 53.0787H102.096L99.8203 65.8445H103.221Z" fill="#939393"/>
<path d="M114.763 53.0787L114.223 56.1117H116.504L114.768 65.8445H118.161L119.897 56.1117H122.253L122.793 53.0787H114.763Z" fill="#939393"/>
<path d="M134.816 53.0697H131.402L133.439 60.5647L133.437 60.5722L132.497 65.8445H135.89L136.836 60.5408L141.313 53.0697H137.767L135.575 57.4043L134.816 53.0697Z" fill="#939393"/>
<path d="M69.7167 34.2877L62.8281 50.0296H67.047L68.1555 47.031H71.4736L71.6065 47.028L71.6379 50.0296H75.6731L74.3972 34.2877H69.7167ZM69.3208 43.932L69.3806 43.7613L71.4542 38.122L71.4557 38.2988L71.5871 37.9408L71.6036 43.932H69.3208Z" fill="#939393"/>
<path d="M89.1084 37.7053C89.0531 36.5385 88.6736 35.6279 87.9804 34.9943C87.2858 34.3577 86.3042 34.0357 85.0643 34.0357H80.0551L77.2031 50.0308H80.9126L82.0166 43.7445L84.7924 50.0308H88.7797L86.0159 43.4644L86.116 43.4224C87.1199 42.9986 88.0073 42.1253 88.4884 41.0829C88.9067 40.1782 89.1188 39.1821 89.1188 38.1202C89.1188 37.936 89.1158 37.7952 89.1084 37.7053ZM85.254 39.7034C85.1151 40.2007 84.891 40.626 84.5877 40.9675C84.259 41.3405 83.8482 41.5067 83.2581 41.5067H83.2551H83.2521L82.3124 41.4798L83.2297 36.5865H84.1739C84.7595 36.5865 85.4602 36.874 85.4602 38.246C85.4602 38.7238 85.3899 39.2151 85.254 39.7034Z" fill="#939393"/>
<path d="M96.7953 46.1975C96.4099 46.6109 95.9244 46.8206 95.3522 46.8206C94.91 46.8206 94.5723 46.6903 94.3483 46.4327C94.1316 46.1855 94.0151 45.8081 94.0017 45.3153C93.9942 45.0262 94.0181 44.6907 94.0734 44.3193L95.6794 34.3184H91.6711L90.083 44.1994C89.9994 44.7267 89.965 45.2644 89.98 45.7961C90.0054 46.7682 90.216 47.6114 90.6029 48.3034C90.9884 48.9879 91.5456 49.5166 92.2582 49.8776C92.9783 50.2431 93.8552 50.4273 94.8622 50.4273C96.0439 50.4273 97.121 50.1757 98.0607 49.6769C98.9974 49.1796 99.7787 48.4517 100.381 47.5141C100.986 46.5705 101.395 45.4351 101.595 44.138L103.164 34.3184H99.1558L97.5408 44.3807C97.4198 45.185 97.1703 45.7961 96.7953 46.1975Z" fill="#939393"/>
<path d="M114.594 34.2397L110.838 44.0204L109.449 34.2397H105.297L102.516 50.0296H106.174L107.715 40.8855L109.038 50.0296H111.599L114.8 40.8031L114.593 50.0296H118.208L118.68 34.2397H114.594Z" fill="#939393"/>
</svg>
