<svg width="153" height="95" viewBox="0 0 153 95" fill="none" xmlns="http://www.w3.org/2000/svg">
<path d="M29.8152 41.5846C31.4168 41.5846 32.6657 40.3536 32.6657 38.841C32.6657 37.3283 31.3851 36 29.8152 36C28.2453 36 27 37.231 27 38.841C27 40.451 28.2171 41.5846 29.8152 41.5846Z" fill="#939393"/>
<path d="M119.063 60.2647C120.185 60.2647 120.919 59.6666 120.919 58.4669V51.9991C120.919 49.5685 122.648 48.1184 125.593 48.1184H127.001V44.4916H125.978C123.706 44.4916 122.136 45.2497 120.982 46.891H120.919V44.4916H117.204V58.4704C117.204 59.6701 117.941 60.2682 119.06 60.2682L119.063 60.2647ZM104.691 56.7943C102.161 56.7943 100.179 54.7427 100.179 52.1869C100.179 49.6311 102.165 47.5795 104.691 47.5795C107.217 47.5795 109.203 49.6311 109.203 52.1869C109.203 54.7427 107.217 56.7943 104.691 56.7943ZM104.37 60.2647C106.419 60.2647 107.986 59.4441 109.076 57.9314H109.139V58.4669C109.139 59.6666 109.877 60.2647 110.995 60.2647C112.113 60.2647 112.851 59.6666 112.851 58.4669V44.4881H109.136V46.4459H109.072C107.982 44.9297 106.416 44.1126 104.366 44.1126C100.045 44.1126 96.3969 47.8055 96.3969 52.1904C96.3969 56.5753 100.045 60.2682 104.366 60.2682L104.37 60.2647ZM90.9887 60.2647C92.0753 60.2647 92.8126 59.6979 92.8444 58.5608V37.3875H89.1296V58.5573C89.1613 59.6944 89.8986 60.2612 90.9852 60.2612L90.9887 60.2647ZM79.047 60.2647C81.8975 60.2647 84.554 58.7834 86.0568 56.384L83.1746 54.3637C82.2785 55.8798 80.7404 56.7943 79.0435 56.7943C76.514 56.7943 74.5314 54.7427 74.5314 52.1869C74.5314 49.6311 76.5176 47.5795 79.0435 47.5795C80.7404 47.5795 82.275 48.494 83.1746 50.0101L86.0568 47.9898C84.554 45.5904 81.894 44.1091 79.047 44.1091C74.4679 44.1091 70.7566 47.7359 70.7566 52.1869C70.7566 56.6379 74.4714 60.2647 79.047 60.2647ZM59.9685 56.7943C57.439 56.7943 55.4564 54.7427 55.4564 52.1869C55.4564 49.6311 57.4426 47.5795 59.9685 47.5795C62.4944 47.5795 64.4806 49.6311 64.4806 52.1869C64.4806 54.7427 62.4944 56.7943 59.9685 56.7943ZM42.2976 60.2647C43.5782 60.2647 44.4425 59.6979 45.148 57.9627L50.5245 44.4916H46.5874L42.4563 55.473H42.3928L38.297 44.4916H34.1659L39.5106 57.9975C40.1844 59.7014 41.0134 60.2682 42.294 60.2682L42.2976 60.2647ZM29.8443 60.2647C30.9662 60.2647 31.6999 59.6666 31.6999 58.4669V44.4881H27.9922V58.4669C27.9922 59.6666 28.7295 60.2647 29.8478 60.2647H29.8443ZM59.965 60.2647C64.5441 60.2647 68.2554 56.6379 68.2554 52.1869C68.2554 47.7359 64.5406 44.1091 59.965 44.1091C55.3894 44.1091 51.6745 47.7359 51.6745 52.1869C51.6745 56.6379 55.3894 60.2647 59.965 60.2647Z" fill="#939393"/>
</svg>
