<svg xmlns="http://www.w3.org/2000/svg" width="24" height="24" viewBox="0 0 24 24" fill="none">
  <path d="M19.3706 4.03524C18.8833 3.59245 16.7797 2.27068 12.3904 2.25154C12.3904 2.25154 7.19313 1.91005 4.67005 4.19537C3.26544 5.58188 2.79236 7.64372 2.73979 10.1602C2.68723 12.6767 2.41919 17.4826 7.02152 18.7612C7.02152 18.7612 7.00376 22.3297 7.00133 22.6433C7.00133 22.8626 7.03614 23.0127 7.16146 23.0436C7.25196 23.0656 7.38668 23.0189 7.5019 22.9044C8.23746 22.1654 10.5934 19.3231 10.5934 19.3231C13.755 19.5295 16.2697 18.9053 16.5402 18.8169C17.1765 18.6129 20.6242 18.3153 21.2093 13.6012C21.8161 8.73957 20.99 5.42175 19.3706 4.03524Z" fill="white"/>
  <path d="M20.5167 2.85969C19.9402 2.32778 17.6107 0.636672 12.4218 0.613696C12.4218 0.613696 6.30276 0.244703 3.31983 2.98083C1.65936 4.64165 1.07523 7.07179 1.01362 10.0847C0.952003 13.0975 0.872286 18.7438 6.31495 20.2748H6.32017L6.31669 22.611C6.31669 22.611 6.28188 23.5568 6.90464 23.7496C7.65795 23.9835 8.10004 23.2647 8.81923 22.4898C9.21399 22.0644 9.75912 21.4396 10.1699 20.962C13.8922 21.2753 16.755 20.5592 17.0802 20.4534C17.8317 20.2097 22.0846 19.6646 22.7763 14.019C23.4902 8.19965 22.4309 4.51877 20.5167 2.85969ZM21.1475 13.6016C20.5637 18.3157 17.1143 18.6119 16.4783 18.8159C16.2078 18.9029 13.6934 19.5285 10.5316 19.322C10.5316 19.322 8.17558 22.1643 7.43968 22.9034C7.32481 23.0189 7.18974 23.0656 7.09958 23.0426C6.97287 23.0116 6.93806 22.8616 6.93945 22.6423C6.94154 22.329 6.95964 18.7602 6.95964 18.7602C2.35557 17.4819 2.62396 12.6763 2.67618 10.1598C2.7284 7.64338 3.20113 5.58189 4.60539 4.19537C7.12847 1.91005 12.3261 2.25154 12.3261 2.25154C16.7154 2.27069 18.8186 3.59245 19.3063 4.03524C20.9257 5.42176 21.7507 8.73957 21.1475 13.6002V13.6016Z" fill="#7360F2"/>
  <path d="M14.5592 10.2465C14.4839 10.2465 14.4116 10.2176 14.3571 10.1658C14.3026 10.1139 14.2701 10.0431 14.2664 9.968C14.2166 8.97207 13.7474 8.48437 12.7897 8.43285C12.7134 8.42678 12.6425 8.39114 12.5921 8.33353C12.5417 8.27592 12.5158 8.2009 12.52 8.12447C12.5241 8.04804 12.5579 7.97625 12.6142 7.92441C12.6705 7.87257 12.7449 7.84479 12.8214 7.84698C14.085 7.91661 14.7875 8.63823 14.8523 9.93876C14.8542 9.97725 14.8485 10.0157 14.8355 10.052C14.8226 10.0883 14.8026 10.1217 14.7768 10.1503C14.7509 10.1789 14.7197 10.2021 14.6848 10.2186C14.65 10.2351 14.6123 10.2446 14.5738 10.2465H14.5592Z" fill="#7360F2"/>
  <path d="M16.0654 10.7514H16.0584C15.9806 10.7495 15.9068 10.7169 15.853 10.6606C15.7993 10.6044 15.7701 10.5291 15.7719 10.4513C15.7945 9.4484 15.5081 8.63627 14.8961 7.9686C14.2841 7.30093 13.4504 6.9389 12.3389 6.85744C12.2611 6.85176 12.1889 6.81544 12.1379 6.75645C12.0869 6.69747 12.0615 6.62066 12.0672 6.54293C12.0729 6.46519 12.1092 6.39289 12.1682 6.34194C12.2272 6.29099 12.304 6.26555 12.3817 6.27123C13.6325 6.36278 14.6239 6.80035 15.3288 7.57141C16.0337 8.34247 16.3842 9.31786 16.3585 10.4635C16.3569 10.5403 16.3254 10.6134 16.2706 10.6672C16.2158 10.721 16.1422 10.7512 16.0654 10.7514Z" fill="#7360F2"/>
  <path d="M17.605 11.3535C17.5276 11.3534 17.4533 11.3227 17.3983 11.2682C17.3434 11.2136 17.3122 11.1395 17.3115 11.0621C17.298 9.2683 16.7814 7.89815 15.7322 6.87402C14.6955 5.86451 13.3859 5.34652 11.8393 5.33538C11.8007 5.33525 11.7626 5.32752 11.7271 5.31265C11.6915 5.29777 11.6592 5.27604 11.6321 5.2487C11.5773 5.19347 11.5466 5.11872 11.5469 5.04089C11.5472 4.96306 11.5783 4.88853 11.6336 4.83369C11.6888 4.77885 11.7635 4.7482 11.8414 4.74848H11.8438C13.5468 4.76101 14.9928 5.33469 16.1419 6.4542C17.291 7.57372 17.8835 9.12558 17.8988 11.0586C17.8994 11.1364 17.869 11.2112 17.8144 11.2666C17.7599 11.322 17.6855 11.3535 17.6078 11.3542L17.605 11.3535Z" fill="#7360F2"/>
  <path d="M12.8625 13.8836C12.8625 13.8836 13.275 13.9184 13.4971 13.6448L13.9301 13.1C14.139 12.8299 14.643 12.6575 15.1367 12.9325C15.5066 13.1435 15.8657 13.3729 16.2127 13.6197C16.5402 13.8606 17.211 14.4204 17.2131 14.4204C17.5327 14.6901 17.6065 15.0863 17.3889 15.504C17.3889 15.5065 17.3872 15.5106 17.3872 15.5127C17.1475 15.9281 16.8433 16.3027 16.4859 16.6225C16.4817 16.6246 16.4817 16.6267 16.4779 16.6288C16.1674 16.8882 15.8623 17.0357 15.5627 17.0712C15.5186 17.0789 15.4738 17.0817 15.4291 17.0795C15.2969 17.0808 15.1655 17.0606 15.0399 17.0197L15.0301 17.0054C14.5685 16.8752 13.7978 16.5494 12.5144 15.8413C11.7716 15.4364 11.0645 14.9693 10.4007 14.4451C10.0679 14.1825 9.75047 13.9009 9.44997 13.602L9.41794 13.5699L9.38592 13.5379L9.35389 13.5059C9.3431 13.4954 9.33266 13.4846 9.32187 13.4739C9.02287 13.1733 8.74137 12.8559 8.47875 12.5232C7.95457 11.8594 7.48748 11.1524 7.08249 10.4098C6.37444 9.12599 6.04861 8.35598 5.91842 7.89369L5.90415 7.88394C5.86334 7.7583 5.84323 7.62686 5.84462 7.49476C5.84218 7.45004 5.84487 7.40519 5.85263 7.36109C5.88999 7.06195 6.0377 6.75666 6.29577 6.44522C6.29786 6.44139 6.29994 6.44139 6.30203 6.43721C6.6217 6.07981 6.99633 5.77569 7.4118 5.53631C7.41389 5.53631 7.41807 5.53422 7.4205 5.53422C7.83823 5.31665 8.23438 5.39045 8.50381 5.70827C8.5059 5.71036 9.06461 6.38116 9.30446 6.70873C9.55135 7.05605 9.78069 7.41552 9.99162 7.78578C10.2666 8.27905 10.0943 8.78415 9.82418 8.99232L9.2794 9.42536C9.00439 9.64746 9.04059 10.06 9.04059 10.06C9.04059 10.06 9.84751 13.1139 12.8625 13.8836Z" fill="#7360F2"/>
</svg>
