<svg width="108" height="354" viewBox="0 0 108 354" fill="none" xmlns="http://www.w3.org/2000/svg">
<g opacity="0.15">
<path d="M105.38 225.685L87.8137 253.997L97.1822 179.256L105.38 225.685Z" fill="#580000"/>
<path d="M78.5748 37.2866L71.3418 93.5666L89.0455 131.523L94.6942 88.4001L78.5748 37.2866Z" fill="#7B0E23"/>
<path d="M64.8706 20.4075L73.5503 22.9563L72.0348 11.7967L64.5951 -1.22277L51.4378 -15L10.1751 -8.11139L-35.152 5.52806L-64.5664 26.1939C-50.7203 38.869 -31.0189 56.5727 -25.4391 61.0503L48.7513 21.303L64.8706 20.4075Z" fill="#7B0E23"/>
<path d="M64.1821 26.4705L50.4049 27.2282L-23.5789 66.9066L-44.7958 98.2499L-88.0563 178.984L-89.5029 191.935L-90.5362 188.904L-107 255.448L-102.385 277.836L-90.1229 284.38L-57.402 193.313L21.7482 103.967L65.5598 91.7057L73.5506 29.2259L64.1821 26.4705Z" fill="#7B0E23"/>
<path d="M25.0512 109.275L-52.1701 196.485L-84.96 287.69L-75.0404 296.163L-62.1586 335.359L-48.2436 349.412L43.2372 104.177L25.0512 109.275Z" fill="#7B0E23"/>
<path d="M-32.7391 362.629L-13.6576 365.04L14.6546 370L37.6625 359.116L75.7566 268.875L82.8519 258.542L93.9425 169.817L87.8805 142.882L66.6636 97.624L50.3376 102.17L-43.4854 353.743L-32.7391 362.629Z" fill="#B81B3A"/>
<path d="M88.6353 260.682L80.9201 271.979L47.4414 351.405L57.0855 343.552L75.2714 323.988L81.609 316.342C89.1864 302.289 101.173 279.556 102.344 276.594C102.688 274.114 104.341 265.435 107.235 250.693L104.755 234.505L88.6353 260.613V260.682Z" fill="#580000"/>
</g>
</svg>
