<svg width="147" height="58" viewBox="0 0 147 58" fill="none" xmlns="http://www.w3.org/2000/svg">
<path d="M43.9805 30.1154C43.9805 26.5558 46.6164 23.6086 50.2071 23.6086C52.4279 23.6086 53.7147 24.4907 54.9912 25.6737L54.3893 26.3068C53.2996 25.2483 52.0543 24.4595 50.1863 24.4595C47.1976 24.4595 44.9352 26.9191 44.9352 30.1258C44.9352 33.3117 47.2287 35.792 50.2071 35.792C52.0024 35.792 53.227 35.0863 54.4931 33.8306L55.1157 34.4429C53.7978 35.7609 52.376 36.6326 50.1656 36.6326C46.606 36.6222 43.9805 33.7683 43.9805 30.1154Z" fill="#141414"/>
<path d="M58.5312 30.1154C58.5312 26.6804 61.0427 23.6086 64.8098 23.6086C68.5769 23.6086 71.0571 26.6492 71.0571 30.1154C71.0571 33.5504 68.5457 36.6222 64.7786 36.6222C61.0115 36.6222 58.5312 33.5815 58.5312 30.1154ZM70.092 30.1154C70.092 27.0021 67.8504 24.4492 64.7682 24.4492C61.6861 24.4492 59.486 26.9709 59.486 30.1154C59.486 33.2287 61.7276 35.7816 64.8098 35.7816C67.8919 35.7816 70.092 33.2598 70.092 30.1154Z" fill="#141414"/>
<path d="M75.9863 23.8168H76.858L85.4508 34.7653V23.8168H86.3433V36.405H85.648L76.8788 25.2178V36.405H75.9863V23.8168Z" fill="#141414"/>
<path d="M95.2676 24.6782H90.9297V23.8168H100.539V24.6782H96.1912V36.405H95.2676V24.6782Z" fill="#141414"/>
<path d="M103.59 30.1154C103.59 26.6804 106.101 23.6086 109.868 23.6086C113.635 23.6086 116.116 26.6492 116.116 30.1154C116.116 33.5504 113.604 36.6222 109.837 36.6222C106.07 36.6222 103.59 33.5815 103.59 30.1154ZM115.161 30.1154C115.161 27.0021 112.919 24.4492 109.837 24.4492C106.755 24.4492 104.555 26.9709 104.555 30.1154C104.555 33.2287 106.797 35.7816 109.879 35.7816C112.951 35.7816 115.161 33.2598 115.161 30.1154Z" fill="#141414"/>
<path d="M120.848 31.1746V23.8168H121.771V31.0812C121.771 34.0492 123.359 35.7615 125.985 35.7615C128.506 35.7615 130.125 34.2153 130.125 31.1746V23.8168H131.049V31.0605C131.049 34.6719 128.963 36.6021 125.943 36.6021C122.965 36.6021 120.848 34.703 120.848 31.1746Z" fill="#141414"/>
<path d="M136.342 23.8168H141.572C143.098 23.8168 144.333 24.3046 145.08 25.0622C145.671 25.6537 146.024 26.5047 146.024 27.4386C146.024 29.5453 144.478 30.7491 142.382 31.0397L146.491 36.4154H145.318L141.354 31.1954H137.276V36.4154H136.352V23.8168H136.342ZM141.468 30.3444C143.554 30.3444 145.101 29.2859 145.101 27.4283C145.101 25.7367 143.783 24.6782 141.52 24.6782H137.265V30.3444H141.468Z" fill="#141414"/>
<path d="M43.7109 46.6793C43.7109 45.1953 44.811 44.2925 45.9006 44.2925C46.8035 44.2925 47.3846 44.8113 47.7582 45.3821V42.4348H48.1941V48.952H47.7582V47.935C47.3743 48.5369 46.7931 49.0558 45.9006 49.0558C44.811 49.0558 43.7109 48.1737 43.7109 46.6793ZM47.779 46.6689C47.779 45.4963 46.8761 44.7179 45.9421 44.7179C44.9666 44.7179 44.1779 45.4444 44.1779 46.6793C44.1779 47.8728 44.9978 48.6407 45.9421 48.6407C46.8761 48.6407 47.779 47.8416 47.779 46.6689Z" fill="#141414"/>
<path d="M51.2871 46.6693C51.2871 45.3514 52.2003 44.2928 53.4249 44.2928C54.691 44.2928 55.4901 45.3306 55.4901 46.6797C55.4901 46.7627 55.4901 46.7835 55.4797 46.8561H51.7437C51.8268 47.9873 52.6258 48.6515 53.5079 48.6515C54.2032 48.6515 54.6806 48.3401 55.0542 47.9354L55.3552 48.2052C54.8985 48.7034 54.3589 49.0666 53.4872 49.0666C52.3041 49.0562 51.2871 48.1014 51.2871 46.6693ZM55.0231 46.4618C54.9608 45.5382 54.4419 44.6976 53.4042 44.6976C52.5117 44.6976 51.8268 45.4551 51.7437 46.4618H55.0231Z" fill="#141414"/>
<path d="M58.5195 44.4068H58.9554V45.2578C59.2563 44.7181 59.7545 44.303 60.5847 44.303C61.7262 44.303 62.3904 45.0917 62.3904 46.1814V48.9626H61.9442V46.254C61.9442 45.32 61.4253 44.6974 60.512 44.6974C59.6299 44.6974 58.945 45.3719 58.945 46.3267V48.9626H58.5195V44.4068Z" fill="#141414"/>
<path d="M65.9292 47.7783V44.7999H65.2754V44.3951H65.9292V42.9423H66.365V44.3951H67.9425V44.7999H66.365V47.7367C66.365 48.3905 66.749 48.6189 67.2679 48.6189C67.4858 48.6189 67.6726 48.5773 67.9321 48.4632V48.8783C67.7038 48.9821 67.4858 49.034 67.1953 49.034C66.5 49.034 65.9292 48.65 65.9292 47.7783Z" fill="#141414"/>
<path d="M70.6191 47.6138C70.6191 46.6694 71.4182 46.1298 72.5909 46.1298C73.2136 46.1298 73.6494 46.2128 74.0853 46.3269V46.1298C74.0853 45.2061 73.5249 44.7391 72.6013 44.7391C72.0513 44.7391 71.605 44.8948 71.1899 45.1024L71.0342 44.7184C71.5324 44.4901 72.0098 44.324 72.6324 44.324C73.2447 44.324 73.7325 44.4901 74.0542 44.8222C74.3551 45.1231 74.5108 45.5486 74.5108 46.109V48.9421H74.0853V48.1845C73.774 48.6204 73.2239 49.0459 72.3626 49.0459C71.522 49.0563 70.6191 48.5789 70.6191 47.6138ZM74.0853 47.2506V46.7317C73.7013 46.6383 73.2032 46.5241 72.5598 46.5241C71.605 46.5241 71.0758 46.9496 71.0758 47.6034C71.0758 48.2676 71.6984 48.6515 72.3833 48.6515C73.307 48.6515 74.0853 48.0808 74.0853 47.2506Z" fill="#141414"/>
<path d="M77.8848 42.4349H78.3206V48.9521H77.8848V42.4349Z" fill="#141414"/>
<path d="M86.2598 42.4349H86.6956V48.9521H86.2598V42.4349Z" fill="#141414"/>
<path d="M89.7871 47.6138C89.7871 46.6694 90.5862 46.1298 91.7589 46.1298C92.3815 46.1298 92.8174 46.2128 93.2532 46.3269V46.1298C93.2532 45.2061 92.6929 44.7391 91.7692 44.7391C91.2192 44.7391 90.773 44.8948 90.3579 45.1024L90.2022 44.7184C90.7003 44.4901 91.1777 44.324 91.8004 44.324C92.4127 44.324 92.9004 44.4901 93.2221 44.8222C93.5231 45.1231 93.6787 45.5486 93.6787 46.109V48.9421H93.2532V48.1845C92.9419 48.6204 92.3919 49.0459 91.5306 49.0459C90.69 49.0563 89.7871 48.5789 89.7871 47.6138ZM93.2636 47.2506V46.7317C92.8797 46.6383 92.3815 46.5241 91.7381 46.5241C90.7834 46.5241 90.2541 46.9496 90.2541 47.6034C90.2541 48.2676 90.8768 48.6515 91.5617 48.6515C92.4749 48.6515 93.2636 48.0808 93.2636 47.2506Z" fill="#141414"/>
<path d="M97.4261 47.9662V48.9521H96.9902V42.4349H97.4261V45.4133C97.8101 44.8114 98.3912 44.2925 99.2837 44.2925C100.373 44.2925 101.473 45.1746 101.473 46.6794C101.473 48.1634 100.373 49.0662 99.2837 49.0662C98.3809 49.0558 97.7997 48.5473 97.4261 47.9662ZM101.006 46.6794C101.006 45.4859 100.187 44.718 99.2422 44.718C98.3082 44.718 97.4053 45.517 97.4053 46.6897C97.4053 47.8624 98.3082 48.6407 99.2422 48.6407C100.218 48.6407 101.006 47.9143 101.006 46.6794Z" fill="#141414"/>
<path d="M104.275 46.6797C104.275 45.4033 105.261 44.2928 106.6 44.2928C107.939 44.2928 108.904 45.3825 108.904 46.6797C108.904 47.9562 107.928 49.0666 106.579 49.0666C105.251 49.0562 104.275 47.9665 104.275 46.6797ZM108.437 46.6797C108.437 45.5797 107.596 44.708 106.579 44.708C105.562 44.708 104.742 45.5901 104.742 46.6797C104.742 47.7798 105.552 48.6515 106.6 48.6515C107.596 48.6515 108.437 47.7694 108.437 46.6797Z" fill="#141414"/>
<path d="M112.006 44.406H112.442V45.7032C112.795 44.8938 113.542 44.3022 114.434 44.3334V44.8107H114.393C113.355 44.8107 112.442 45.6098 112.442 47.0834V48.9514H112.006V44.406Z" fill="#141414"/>
<path d="M116.707 47.6138C116.707 46.6694 117.506 46.1298 118.679 46.1298C119.301 46.1298 119.737 46.2128 120.173 46.3269V46.1298C120.173 45.2061 119.613 44.7391 118.689 44.7391C118.139 44.7391 117.693 44.8948 117.278 45.1024L117.122 44.7184C117.62 44.4901 118.108 44.324 118.72 44.324C119.333 44.324 119.82 44.4901 120.142 44.8222C120.443 45.1231 120.599 45.5486 120.599 46.109V48.9421H120.173V48.1845C119.862 48.6204 119.312 49.0459 118.45 49.0459C117.61 49.0563 116.707 48.5789 116.707 47.6138ZM120.184 47.2506V46.7317C119.8 46.6383 119.301 46.5241 118.658 46.5241C117.703 46.5241 117.174 46.9496 117.174 47.6034C117.174 48.2676 117.797 48.6515 118.482 48.6515C119.395 48.6515 120.184 48.0808 120.184 47.2506Z" fill="#141414"/>
<path d="M124.148 47.7783V44.7999H123.494V44.3951H124.148V42.9423H124.584V44.3951H126.161V44.7999H124.584V47.7367C124.584 48.3905 124.968 48.6189 125.487 48.6189C125.705 48.6189 125.891 48.5773 126.151 48.4632V48.8783C125.923 48.9821 125.705 49.034 125.414 49.034C124.719 49.034 124.148 48.65 124.148 47.7783Z" fill="#141414"/>
<path d="M128.766 46.6797C128.766 45.4033 129.752 44.2928 131.09 44.2928C132.429 44.2928 133.394 45.3825 133.394 46.6797C133.394 47.9562 132.419 49.0666 131.069 49.0666C129.741 49.0562 128.766 47.9665 128.766 46.6797ZM132.927 46.6797C132.927 45.5797 132.086 44.708 131.069 44.708C130.052 44.708 129.233 45.5901 129.233 46.6797C129.233 47.7798 130.042 48.6515 131.09 48.6515C132.086 48.6515 132.927 47.7694 132.927 46.6797Z" fill="#141414"/>
<path d="M136.498 44.406H136.934V45.7032C137.287 44.8938 138.034 44.3022 138.926 44.3334V44.8107H138.885C137.847 44.8107 136.934 45.6098 136.934 47.0834V48.9514H136.498V44.406Z" fill="#141414"/>
<path d="M141.448 50.2088L141.593 49.8248C141.832 49.939 142.029 49.9909 142.361 49.9909C142.828 49.9909 143.14 49.7107 143.472 48.922L141.303 44.3973H141.811L143.679 48.4654L145.309 44.3973H145.786L143.835 49.1088C143.441 50.0635 142.974 50.406 142.33 50.406C141.998 50.406 141.749 50.3437 141.448 50.2088Z" fill="#141414"/>
<path d="M31.994 36.2595L29.3477 40.5247L30.759 29.2649L31.994 36.2595Z" fill="#580000"/>
<path d="M27.9568 7.87686L26.8672 16.3554L29.5343 22.0735L30.3852 15.5771L27.9568 7.87686Z" fill="#7B0E23"/>
<path d="M25.8922 5.33413L27.1998 5.7181L26.9715 4.03692L25.8507 2.07554L23.8686 0L17.6524 1.03777L10.8238 3.09255L6.39258 6.20586C8.47849 8.11535 11.4465 10.7824 12.2871 11.457L23.4639 5.46904L25.8922 5.33413Z" fill="#7B0E23"/>
<path d="M7.5438 16.2104L8.77875 16.3245L11.643 12.0904C10.4911 11.1564 7.36738 8.32333 5.98715 7.06763L4.98052 13.398L3.95312 16.5736L4.56541 19.5105L5.64469 17.7151L7.5438 16.2104Z" fill="#7B0E23"/>
<path d="M7.81449 17.1436L6.26822 18.3682L4.8361 20.807L4.84647 20.8485L3.66342 22.3014L3.14453 26.7741L8.28149 17.1852L7.81449 17.1436Z" fill="#580000"/>
<path d="M3.15558 21.5037L3.87164 20.6112L3.63295 19.4697L2.80273 21.2235L3.15558 21.5037Z" fill="#580000"/>
<path d="M25.7886 6.2475L23.713 6.36165L12.5674 12.3392L9.37105 17.0611L2.85386 29.2237L2.63593 31.1747L2.48027 30.7181L0 40.7429L0.695303 44.1157L2.54253 45.1016L7.47194 31.3823L19.3959 17.9224L25.9961 16.0752L27.1999 6.66261L25.7886 6.2475Z" fill="#7B0E23"/>
<path d="M19.8935 18.7222L8.26009 31.8604L3.32031 45.6004L4.8147 46.8769L6.75533 52.7818L8.85162 54.8989L22.6332 17.9543L19.8935 18.7222Z" fill="#7B0E23"/>
<path d="M11.1873 56.8896L14.0619 57.2528L18.3271 58L21.7933 56.3603L27.5321 42.7655L28.601 41.2089L30.2718 27.8424L29.3586 23.7848L26.1623 16.9666L23.7028 17.6515L9.56836 55.5509L11.1873 56.8896Z" fill="#B81B3A"/>
<path d="M29.4734 41.5317L28.3111 43.2336L23.2676 55.1991L24.7205 54.016L27.4602 51.0688L28.4149 49.9168C29.5565 47.7998 31.3622 44.3752 31.5386 43.9289C31.5905 43.5553 31.8395 42.2477 32.2754 40.0269L31.9018 37.5881L29.4734 41.5213V41.5317Z" fill="#580000"/>
</svg>
