<svg width="117" height="47" viewBox="0 0 117 47" fill="none" xmlns="http://www.w3.org/2000/svg">
<path d="M35.1265 24.0526C35.1265 21.2096 37.2317 18.8557 40.0995 18.8557C41.8733 18.8557 42.901 19.5602 43.9205 20.5051L43.4398 21.0107C42.5695 20.1653 41.5749 19.5354 40.083 19.5354C37.6959 19.5354 35.889 21.4997 35.889 24.0609C35.889 26.6054 37.7208 28.5864 40.0995 28.5864C41.5334 28.5864 42.5115 28.0227 43.5227 27.0198L44.02 27.5089C42.9673 28.5615 41.8318 29.2577 40.0664 29.2577C37.2234 29.2494 35.1265 26.9701 35.1265 24.0526Z" fill="#141414"/>
<path d="M46.7476 24.0526C46.7476 21.3091 48.7534 18.8557 51.7621 18.8557C54.7708 18.8557 56.7518 21.2842 56.7518 24.0526C56.7518 26.7961 54.746 29.2494 51.7373 29.2494C48.7286 29.2494 46.7476 26.8209 46.7476 24.0526ZM55.981 24.0526C55.981 21.566 54.1907 19.5271 51.729 19.5271C49.2673 19.5271 47.5102 21.5412 47.5102 24.0526C47.5102 26.5391 49.3005 28.5781 51.7621 28.5781C54.2238 28.5781 55.981 26.564 55.981 24.0526Z" fill="#141414"/>
<path d="M60.6885 19.022H61.3848L68.2476 27.7664V19.022H68.9604V29.0759H68.4051L61.4013 20.141V29.0759H60.6885V19.022Z" fill="#141414"/>
<path d="M76.0882 19.71H72.6236V19.022H80.2987V19.71H76.8258V29.0759H76.0882V19.71Z" fill="#141414"/>
<path d="M82.7354 24.0526C82.7354 21.3091 84.7412 18.8557 87.7499 18.8557C90.7586 18.8557 92.7395 21.2842 92.7395 24.0526C92.7395 26.7961 90.7337 29.2494 87.725 29.2494C84.7163 29.2494 82.7354 26.8209 82.7354 24.0526ZM91.977 24.0526C91.977 21.566 90.1867 19.5271 87.725 19.5271C85.2633 19.5271 83.5062 21.5412 83.5062 24.0526C83.5062 26.5391 85.2965 28.5781 87.7582 28.5781C90.2115 28.5781 91.977 26.564 91.977 24.0526Z" fill="#141414"/>
<path d="M96.5189 24.8986V19.022H97.2566V24.824C97.2566 27.1945 98.5247 28.5621 100.622 28.5621C102.636 28.5621 103.929 27.3271 103.929 24.8986V19.022H104.666V24.8074C104.666 27.6918 103 29.2334 100.589 29.2334C98.2098 29.2334 96.5189 27.7166 96.5189 24.8986Z" fill="#141414"/>
<path d="M108.894 19.022H113.071C114.29 19.022 115.276 19.4116 115.873 20.0167C116.345 20.4891 116.627 21.1688 116.627 21.9147C116.627 23.5973 115.392 24.5587 113.718 24.7908L117 29.0842H116.063L112.897 24.9151H109.64V29.0842H108.902V19.022H108.894ZM112.988 24.2355C114.654 24.2355 115.889 23.3901 115.889 21.9064C115.889 20.5554 114.837 19.71 113.03 19.71H109.632V24.2355H112.988Z" fill="#141414"/>
<path d="M34.9107 37.2819C34.9107 36.0966 35.7893 35.3755 36.6596 35.3755C37.3807 35.3755 37.8448 35.79 38.1432 36.2458V33.8919H38.4913V39.097H38.1432V38.2848C37.8365 38.7655 37.3724 39.1799 36.6596 39.1799C35.7893 39.1799 34.9107 38.4754 34.9107 37.2819ZM38.1598 37.2736C38.1598 36.337 37.4387 35.7154 36.6927 35.7154C35.9136 35.7154 35.2837 36.2956 35.2837 37.2819C35.2837 38.2351 35.9385 38.8484 36.6927 38.8484C37.4387 38.8484 38.1598 38.2102 38.1598 37.2736Z" fill="#141414"/>
<path d="M40.9609 37.2739C40.9609 36.2213 41.6903 35.3758 42.6683 35.3758C43.6795 35.3758 44.3177 36.2047 44.3177 37.2822C44.3177 37.3485 44.3177 37.3651 44.3094 37.4231H41.3256C41.3919 38.3265 42.0301 38.857 42.7346 38.857C43.2899 38.857 43.6712 38.6083 43.9696 38.2851L44.21 38.5006C43.8453 38.8984 43.4143 39.1885 42.718 39.1885C41.7731 39.1802 40.9609 38.4177 40.9609 37.2739ZM43.9447 37.1081C43.895 36.3704 43.4806 35.6991 42.6517 35.6991C41.9389 35.6991 41.3919 36.3041 41.3256 37.1081H43.9447Z" fill="#141414"/>
<path d="M46.7381 35.4668H47.0862V36.1465C47.3266 35.7155 47.7244 35.384 48.3875 35.384C49.2992 35.384 49.8297 36.0139 49.8297 36.8842V39.1055H49.4733V36.9422C49.4733 36.1962 49.0589 35.6989 48.3295 35.6989C47.625 35.6989 47.0779 36.2377 47.0779 37.0002V39.1055H46.7381V35.4668Z" fill="#141414"/>
<path d="M52.6561 38.1596V35.7808H52.1339V35.4575H52.6561V34.2972H53.0042V35.4575H54.264V35.7808H53.0042V38.1264C53.0042 38.6486 53.3109 38.8309 53.7253 38.8309C53.8994 38.8309 54.0485 38.7978 54.2558 38.7066V39.0382C54.0734 39.121 53.8994 39.1625 53.6673 39.1625C53.1119 39.1625 52.6561 38.8558 52.6561 38.1596Z" fill="#141414"/>
<path d="M56.403 38.0282C56.403 37.274 57.0412 36.843 57.9778 36.843C58.4751 36.843 58.8232 36.9093 59.1713 37.0004V36.843C59.1713 36.1053 58.7237 35.7323 57.9861 35.7323C57.5468 35.7323 57.1904 35.8566 56.8588 36.0224L56.7345 35.7157C57.1323 35.5334 57.5136 35.4008 58.0109 35.4008C58.4999 35.4008 58.8895 35.5334 59.1464 35.7986C59.3868 36.039 59.5111 36.3788 59.5111 36.8264V39.0891H59.1713V38.4841C58.9226 38.8322 58.4834 39.172 57.7954 39.172C57.1241 39.1803 56.403 38.799 56.403 38.0282ZM59.1713 37.7381V37.3237C58.8646 37.2491 58.4668 37.1579 57.9529 37.1579C57.1904 37.1579 56.7676 37.4977 56.7676 38.0199C56.7676 38.5504 57.265 38.8571 57.812 38.8571C58.5497 38.8571 59.1713 38.4012 59.1713 37.7381Z" fill="#141414"/>
<path d="M62.2039 33.8919H62.552V39.0971H62.2039V33.8919Z" fill="#141414"/>
<path d="M68.8942 33.8919H69.2423V39.0971H68.8942V33.8919Z" fill="#141414"/>
<path d="M71.712 38.0282C71.712 37.274 72.3502 36.843 73.2868 36.843C73.7842 36.843 74.1323 36.9093 74.4804 37.0004V36.843C74.4804 36.1053 74.0328 35.7323 73.2951 35.7323C72.8558 35.7323 72.4994 35.8566 72.1679 36.0224L72.0436 35.7157C72.4414 35.5334 72.8227 35.4008 73.32 35.4008C73.809 35.4008 74.1986 35.5334 74.4555 35.7986C74.6959 36.039 74.8202 36.3788 74.8202 36.8264V39.0891H74.4804V38.4841C74.2317 38.8322 73.7924 39.172 73.1045 39.172C72.4331 39.1803 71.712 38.799 71.712 38.0282ZM74.4887 37.7381V37.3237C74.182 37.2491 73.7841 37.1579 73.2703 37.1579C72.5077 37.1579 72.085 37.4977 72.085 38.0199C72.085 38.5504 72.5823 38.8571 73.1294 38.8571C73.8587 38.8571 74.4887 38.4012 74.4887 37.7381Z" fill="#141414"/>
<path d="M77.8124 38.3097V39.0971H77.4643V33.8919H77.8124V36.2707C78.1191 35.79 78.5832 35.3756 79.2961 35.3756C80.1663 35.3756 81.0449 36.0801 81.0449 37.2819C81.0449 38.4671 80.1663 39.1882 79.2961 39.1882C78.575 39.18 78.1108 38.7738 77.8124 38.3097ZM80.6719 37.2819C80.6719 36.3287 80.0171 35.7154 79.2629 35.7154C78.5169 35.7154 77.7958 36.3536 77.7958 37.2902C77.7958 38.2268 78.5169 38.8484 79.2629 38.8484C80.042 38.8484 80.6719 38.2682 80.6719 37.2819Z" fill="#141414"/>
<path d="M83.2825 37.2822C83.2825 36.2627 84.0699 35.3758 85.1391 35.3758C86.2084 35.3758 86.9792 36.2461 86.9792 37.2822C86.9792 38.3017 86.2001 39.1885 85.1226 39.1885C84.0616 39.1802 83.2825 38.31 83.2825 37.2822ZM86.6062 37.2822C86.6062 36.4036 85.9348 35.7074 85.1226 35.7074C84.3103 35.7074 83.6555 36.4119 83.6555 37.2822C83.6555 38.1608 84.302 38.857 85.1391 38.857C85.9348 38.857 86.6062 38.1525 86.6062 37.2822Z" fill="#141414"/>
<path d="M89.4579 35.4662H89.806V36.5023C90.0878 35.8558 90.6846 35.3833 91.3974 35.4082V35.7895H91.3642C90.5354 35.7895 89.806 36.4277 89.806 37.6046V39.0966H89.4579V35.4662Z" fill="#141414"/>
<path d="M93.2119 38.0282C93.2119 37.274 93.8501 36.843 94.7867 36.843C95.284 36.843 95.6321 36.9093 95.9802 37.0004V36.843C95.9802 36.1053 95.5326 35.7323 94.795 35.7323C94.3557 35.7323 93.9993 35.8566 93.6677 36.0224L93.5434 35.7157C93.9412 35.5334 94.3308 35.4008 94.8198 35.4008C95.3088 35.4008 95.6984 35.5334 95.9553 35.7986C96.1957 36.039 96.32 36.3788 96.32 36.8264V39.0891H95.9802V38.4841C95.7315 38.8322 95.2923 39.172 94.6043 39.172C93.933 39.1803 93.2119 38.799 93.2119 38.0282ZM95.9885 37.7381V37.3237C95.6818 37.2491 95.284 37.1579 94.7701 37.1579C94.0075 37.1579 93.5848 37.4977 93.5848 38.0199C93.5848 38.5504 94.0821 38.8571 94.6292 38.8571C95.3586 38.8571 95.9885 38.4012 95.9885 37.7381Z" fill="#141414"/>
<path d="M99.1543 38.1596V35.7808H98.6321V35.4575H99.1543V34.2972H99.5024V35.4575H100.762V35.7808H99.5024V38.1264C99.5024 38.6486 99.809 38.8309 100.223 38.8309C100.398 38.8309 100.547 38.7978 100.754 38.7066V39.0382C100.572 39.121 100.398 39.1625 100.165 39.1625C99.6101 39.1625 99.1543 38.8558 99.1543 38.1596Z" fill="#141414"/>
<path d="M102.843 37.2822C102.843 36.2627 103.631 35.3758 104.7 35.3758C105.769 35.3758 106.54 36.2461 106.54 37.2822C106.54 38.3017 105.761 39.1885 104.683 39.1885C103.622 39.1802 102.843 38.31 102.843 37.2822ZM106.167 37.2822C106.167 36.4036 105.496 35.7074 104.683 35.7074C103.871 35.7074 103.216 36.4119 103.216 37.2822C103.216 38.1608 103.863 38.857 104.7 38.857C105.496 38.857 106.167 38.1525 106.167 37.2822Z" fill="#141414"/>
<path d="M109.017 35.4662H109.365V36.5023C109.647 35.8558 110.244 35.3833 110.957 35.4082V35.7895H110.924C110.095 35.7895 109.365 36.4277 109.365 37.6046V39.0966H109.017V35.4662Z" fill="#141414"/>
<path d="M112.972 40.1008L113.088 39.7941C113.278 39.8853 113.436 39.9267 113.701 39.9267C114.074 39.9267 114.323 39.703 114.588 39.073L112.855 35.4593H113.262L114.754 38.7083L116.055 35.4593H116.436L114.878 39.2222C114.563 39.9848 114.19 40.2583 113.676 40.2583C113.411 40.2583 113.212 40.2086 112.972 40.1008Z" fill="#141414"/>
<path d="M25.5537 28.9597L23.4401 32.3663L24.5674 23.3733L25.5537 28.9597Z" fill="#580000"/>
<path d="M22.3284 6.29111L21.4581 13.0628L23.5882 17.6297L24.2679 12.4411L22.3284 6.29111Z" fill="#7B0E23"/>
<path d="M20.6796 4.26027L21.7239 4.56694L21.5416 3.22421L20.6464 1.65769L19.0634 0L14.0986 0.828846L8.64476 2.46996L5.10559 4.9565C6.77157 6.48157 9.14207 8.61171 9.81343 9.15046L18.7401 4.36802L20.6796 4.26027Z" fill="#7B0E23"/>
<path d="M6.02613 12.9469L7.01246 13.0381L9.30007 9.65638C8.38005 8.91041 5.88523 6.64766 4.78286 5.64476L3.97888 10.7007L3.15833 13.237L3.64734 15.5826L4.50934 14.1487L6.02613 12.9469Z" fill="#7B0E23"/>
<path d="M6.24153 13.6923L5.00655 14.6703L3.86274 16.6181L3.87103 16.6513L2.92614 17.8117L2.51172 21.384L6.61451 13.7255L6.24153 13.6923Z" fill="#580000"/>
<path d="M2.51936 17.1746L3.09126 16.4618L2.90063 15.5501L2.23755 16.9508L2.51936 17.1746Z" fill="#580000"/>
<path d="M20.5968 4.98976L18.9391 5.08093L10.0373 9.85509L7.48448 13.6263L2.27933 23.3404L2.10527 24.8986L1.98094 24.5339L0 32.5406L0.555325 35.2344L2.03067 36.0218L5.96769 25.0644L15.4911 14.3143L20.7626 12.8389L21.7241 5.3213L20.5968 4.98976Z" fill="#7B0E23"/>
<path d="M15.8883 14.9531L6.59692 25.4463L2.65161 36.4202L3.84515 37.4397L5.39509 42.1558L7.06936 43.8466L18.0764 14.3397L15.8883 14.9531Z" fill="#7B0E23"/>
<path d="M8.9354 45.4366L11.2313 45.7267L14.6379 46.3235L17.4062 45.0139L21.9897 34.156L22.8434 32.9127L24.1779 22.2372L23.4485 18.9964L20.8956 13.5509L18.9313 14.0979L7.6424 44.3674L8.9354 45.4366Z" fill="#B81B3A"/>
<path d="M23.5388 33.1705L22.6105 34.5298L18.5823 44.0864L19.7427 43.1415L21.9308 40.7876L22.6934 39.8676C23.6051 38.1768 25.0473 35.4416 25.1882 35.0852C25.2296 34.7868 25.4285 33.7424 25.7767 31.9687L25.4783 30.0209L23.5388 33.1622V33.1705Z" fill="#580000"/>
</svg>
