<svg width="215" height="72" viewBox="0 0 215 72" fill="none" xmlns="http://www.w3.org/2000/svg">
<g transform="translate(52.2, 28) scale(1.3) translate(-52.2, -28)">
<path d="M52.2402 35.7716C52.2402 31.5436 55.3712 28.0428 59.6361 28.0428C62.274 28.0428 63.8025 29.0906 65.3187 30.4958L64.6037 31.2477C63.3094 29.9904 61.8303 29.0536 59.6115 29.0536C56.0615 29.0536 53.3743 31.975 53.3743 35.7839C53.3743 39.5681 56.0984 42.5142 59.6361 42.5142C61.7686 42.5142 63.2232 41.676 64.727 40.1845L65.4666 40.9117C63.9011 42.4772 62.2124 43.5126 59.5868 43.5126C55.3588 43.5003 52.2402 40.1105 52.2402 35.7716Z" fill="white"/>
<path d="M69.5234 35.7716C69.5234 31.6915 72.5065 28.0428 76.981 28.0428C81.4555 28.0428 84.4015 31.6545 84.4015 35.7716C84.4015 39.8516 81.4185 43.5003 76.944 43.5003C72.4695 43.5003 69.5234 39.8886 69.5234 35.7716ZM83.2552 35.7716C83.2552 32.0736 80.5927 29.0413 76.9317 29.0413C73.2707 29.0413 70.6575 32.0366 70.6575 35.7716C70.6575 39.4695 73.32 42.5019 76.981 42.5019C80.642 42.5019 83.2552 39.5065 83.2552 35.7716Z" fill="white"/>
<path d="M90.2559 28.2895H91.2913L101.498 41.294V28.2895H102.558V43.2416H101.732L91.3159 29.9536V43.2416H90.2559V28.2895Z" fill="white"/>
<path d="M113.158 29.3126H108.006V28.2895H119.42V29.3126H114.255V43.2416H113.158V29.3126Z" fill="white"/>
<path d="M123.043 35.7716C123.043 31.6915 126.026 28.0428 130.501 28.0428C134.975 28.0428 137.921 31.6545 137.921 35.7716C137.921 39.8516 134.938 43.5003 130.464 43.5003C125.989 43.5003 123.043 39.8886 123.043 35.7716ZM136.787 35.7716C136.787 32.0736 134.124 29.0413 130.464 29.0413C126.803 29.0413 124.189 32.0366 124.189 35.7716C124.189 39.4695 126.852 42.5019 130.513 42.5019C134.161 42.5019 136.787 39.5065 136.787 35.7716Z" fill="white"/>
<path d="M143.543 37.029V28.2895H144.64V36.918C144.64 40.4434 146.526 42.4773 149.645 42.4773C152.64 42.4773 154.563 40.6407 154.563 37.029V28.2895H155.66V36.8934C155.66 41.183 153.182 43.4757 149.595 43.4757C146.058 43.4757 143.543 41.22 143.543 37.029Z" fill="white"/>
<path d="M161.945 28.2895H168.158C169.97 28.2895 171.437 28.8688 172.324 29.7687C173.027 30.4713 173.446 31.4821 173.446 32.5914C173.446 35.0937 171.609 36.5236 169.119 36.8687L174.001 43.2539H172.608L167.899 37.0536H163.055V43.2539H161.958V28.2895H161.945ZM168.035 36.0429C170.512 36.0429 172.349 34.7856 172.349 32.5791C172.349 30.5699 170.783 29.3126 168.096 29.3126H163.042V36.0429H168.035Z" fill="white"/>
<path d="M51.9199 55.4455C51.9199 53.6828 53.2265 52.6104 54.5208 52.6104C55.5932 52.6104 56.2835 53.2267 56.7273 53.9047V50.4039H57.245V58.145H56.7273V56.937C56.2712 57.6519 55.5809 58.2682 54.5208 58.2682C53.2265 58.2682 51.9199 57.2205 51.9199 55.4455ZM56.7519 55.4331C56.7519 54.0402 55.6795 53.1158 54.5701 53.1158C53.4114 53.1158 52.4746 53.9786 52.4746 55.4455C52.4746 56.863 53.4484 57.7752 54.5701 57.7752C55.6795 57.7752 56.7519 56.826 56.7519 55.4331Z" fill="white"/>
<path d="M60.916 55.4335C60.916 53.868 62.0008 52.6107 63.4553 52.6107C64.9591 52.6107 65.9083 53.8434 65.9083 55.4458C65.9083 55.5444 65.9083 55.5691 65.8959 55.6554H61.4584C61.557 56.999 62.5061 57.7879 63.5539 57.7879C64.3798 57.7879 64.9468 57.4181 65.3905 56.9373L65.748 57.2578C65.2056 57.8495 64.5647 58.2809 63.5292 58.2809C62.124 58.2686 60.916 57.1345 60.916 55.4335ZM65.3536 55.1869C65.2796 54.0899 64.6633 53.0914 63.4306 53.0914C62.3705 53.0914 61.557 53.9913 61.4584 55.1869H65.3536Z" fill="white"/>
<path d="M69.5098 52.7466H70.0275V53.7574C70.3849 53.1164 70.9766 52.6234 71.9627 52.6234C73.3187 52.6234 74.1076 53.5602 74.1076 54.8544V58.158H73.5775V54.9407C73.5775 53.8313 72.9612 53.0918 71.8765 53.0918C70.8287 53.0918 70.0151 53.893 70.0151 55.027V58.158H69.5098V52.7466Z" fill="white"/>
<path d="M78.3098 56.7505V53.2128H77.5332V52.7321H78.3098V51.0063H78.8275V52.7321H80.7011V53.2128H78.8275V56.7012C78.8275 57.4778 79.2836 57.7489 79.8999 57.7489C80.1588 57.7489 80.3806 57.6996 80.6888 57.564V58.0571C80.4176 58.1804 80.1588 58.242 79.8136 58.242C78.9877 58.242 78.3098 57.7859 78.3098 56.7505Z" fill="white"/>
<path d="M83.8809 56.5555C83.8809 55.4338 84.83 54.7928 86.2229 54.7928C86.9625 54.7928 87.4802 54.8914 87.9979 55.027V54.7928C87.9979 53.6958 87.3323 53.1411 86.2352 53.1411C85.5819 53.1411 85.0519 53.326 84.5588 53.5725L84.3739 53.1164C84.9656 52.8452 85.5326 52.648 86.2722 52.648C86.9995 52.648 87.5788 52.8452 87.9609 53.2397C88.3184 53.5972 88.5033 54.1025 88.5033 54.7682V58.1333H87.9979V57.2335C87.6281 57.7512 86.9748 58.2566 85.9517 58.2566C84.9533 58.2689 83.8809 57.7019 83.8809 56.5555ZM87.9979 56.1241V55.5078C87.5418 55.3968 86.9502 55.2612 86.1859 55.2612C85.0519 55.2612 84.4232 55.7666 84.4232 56.5432C84.4232 57.3321 85.1628 57.7882 85.9764 57.7882C87.0734 57.7882 87.9979 57.1102 87.9979 56.1241Z" fill="white"/>
<path d="M92.5098 50.4039H93.0275V58.145H92.5098V50.4039Z" fill="white"/>
<path d="M102.459 50.4039H102.977V58.145H102.459V50.4039Z" fill="white"/>
<path d="M106.65 56.5555C106.65 55.4338 107.6 54.7928 108.992 54.7928C109.732 54.7928 110.25 54.8914 110.767 55.027V54.7928C110.767 53.6958 110.102 53.1411 109.005 53.1411C108.351 53.1411 107.821 53.326 107.328 53.5725L107.143 53.1164C107.735 52.8452 108.302 52.648 109.042 52.648C109.769 52.648 110.348 52.8452 110.73 53.2397C111.088 53.5972 111.273 54.1025 111.273 54.7682V58.1333H110.767V57.2335C110.398 57.7512 109.744 58.2566 108.721 58.2566C107.723 58.2689 106.65 57.7019 106.65 56.5555ZM110.78 56.1241V55.5078C110.324 55.3968 109.732 55.2612 108.968 55.2612C107.834 55.2612 107.205 55.7666 107.205 56.5432C107.205 57.3321 107.945 57.7882 108.758 57.7882C109.843 57.7882 110.78 57.1102 110.78 56.1241Z" fill="white"/>
<path d="M115.721 56.974V58.145H115.203V50.4039H115.721V53.9416C116.177 53.2267 116.867 52.6104 117.927 52.6104C119.222 52.6104 120.528 53.6581 120.528 55.4455C120.528 57.2082 119.222 58.2806 117.927 58.2806C116.855 58.2682 116.165 57.6642 115.721 56.974ZM119.973 55.4455C119.973 54.0279 119 53.1158 117.878 53.1158C116.769 53.1158 115.696 54.0649 115.696 55.4578C115.696 56.8507 116.769 57.7752 117.878 57.7752C119.037 57.7752 119.973 56.9123 119.973 55.4455Z" fill="white"/>
<path d="M123.857 55.4458C123.857 53.9297 125.028 52.6107 126.619 52.6107C128.209 52.6107 129.355 53.905 129.355 55.4458C129.355 56.962 128.196 58.2809 126.594 58.2809C125.016 58.2686 123.857 56.9743 123.857 55.4458ZM128.8 55.4458C128.8 54.1392 127.802 53.1038 126.594 53.1038C125.386 53.1038 124.412 54.1515 124.412 55.4458C124.412 56.7524 125.374 57.7879 126.619 57.7879C127.802 57.7879 128.8 56.7401 128.8 55.4458Z" fill="white"/>
<path d="M133.041 52.7456H133.559V54.2864C133.978 53.3249 134.865 52.6223 135.925 52.6593V53.2263H135.876C134.643 53.2263 133.559 54.1755 133.559 55.9258V58.1446H133.041V52.7456Z" fill="white"/>
<path d="M138.623 56.5555C138.623 55.4338 139.572 54.7928 140.965 54.7928C141.705 54.7928 142.222 54.8914 142.74 55.027V54.7928C142.74 53.6958 142.074 53.1411 140.977 53.1411C140.324 53.1411 139.794 53.326 139.301 53.5725L139.116 53.1164C139.708 52.8452 140.287 52.648 141.014 52.648C141.742 52.648 142.321 52.8452 142.703 53.2397C143.061 53.5972 143.245 54.1025 143.245 54.7682V58.1333H142.74V57.2335C142.37 57.7512 141.717 58.2566 140.694 58.2566C139.695 58.2689 138.623 57.7019 138.623 56.5555ZM142.752 56.1241V55.5078C142.296 55.3968 141.705 55.2612 140.94 55.2612C139.806 55.2612 139.178 55.7666 139.178 56.5432C139.178 57.3321 139.917 57.7882 140.731 57.7882C141.816 57.7882 142.752 57.1102 142.752 56.1241Z" fill="white"/>
<path d="M147.462 56.7505V53.2128H146.686V52.7321H147.462V51.0063H147.98V52.7321H149.853V53.2128H147.98V56.7012C147.98 57.4778 148.436 57.7489 149.052 57.7489C149.311 57.7489 149.533 57.6996 149.841 57.564V58.0571C149.57 58.1804 149.311 58.242 148.966 58.242C148.14 58.242 147.462 57.7859 147.462 56.7505Z" fill="white"/>
<path d="M152.947 55.4458C152.947 53.9297 154.118 52.6107 155.708 52.6107C157.299 52.6107 158.445 53.905 158.445 55.4458C158.445 56.962 157.286 58.2809 155.684 58.2809C154.106 58.2686 152.947 56.9743 152.947 55.4458ZM157.89 55.4458C157.89 54.1392 156.892 53.1038 155.684 53.1038C154.476 53.1038 153.502 54.1515 153.502 55.4458C153.502 56.7524 154.463 57.7879 155.708 57.7879C156.892 57.7879 157.89 56.7401 157.89 55.4458Z" fill="white"/>
<path d="M162.131 52.7456H162.649V54.2864C163.068 53.3249 163.955 52.6223 165.015 52.6593V53.2263H164.966C163.733 53.2263 162.649 54.1755 162.649 55.9258V58.1446H162.131V52.7456Z" fill="white"/>
<path d="M168.01 59.6375L168.183 59.1814C168.467 59.317 168.701 59.3786 169.095 59.3786C169.65 59.3786 170.02 59.0458 170.414 58.109L167.838 52.7346H168.442L170.661 57.5666L172.596 52.7346H173.163L170.846 58.3308C170.377 59.4649 169.822 59.8717 169.058 59.8717C168.664 59.8717 168.368 59.7977 168.01 59.6375Z" fill="white"/>
</g>
<path d="M38.0046 43.0692L34.8613 48.1354L36.5377 34.7612L38.0046 43.0692Z" fill="white"/>
<path d="M33.2064 9.35614L31.9121 19.4269L35.08 26.2188L36.0908 18.5024L33.2064 9.35614Z" fill="white"/>
<path d="M30.7553 6.33583L32.3084 6.79191L32.0372 4.79502L30.706 2.4653L28.3516 0L20.968 1.23265L12.8572 3.6733L7.59375 7.37125C10.0714 9.63933 13.5968 12.8072 14.5952 13.6085L27.8709 6.49607L30.7553 6.33583Z" fill="white"/>
<path d="M8.96224 19.2544L10.4291 19.39L13.8312 14.3608C12.463 13.2514 8.75269 9.88622 7.11326 8.39471L5.91759 15.9139L4.69727 19.6858L5.42453 23.1742L6.70649 21.0417L8.96224 19.2544Z" fill="white"/>
<path d="M9.28131 20.3633L7.44466 21.8178L5.7436 24.7145L5.75592 24.7638L4.3507 26.4896L3.73438 31.8023L9.836 20.4126L9.28131 20.3633Z" fill="white"/>
<path d="M3.74723 25.5419L4.59775 24.4818L4.31425 23.1259L3.32812 25.209L3.74723 25.5419Z" fill="white"/>
<path d="M30.6314 7.42065L28.1661 7.55624L14.9274 14.6563L11.1308 20.2649L3.38979 34.7116L3.13093 37.0289L2.94604 36.4866L0 48.394L0.825874 52.4001L3.02 53.5711L8.87509 37.2755L23.0383 21.288L30.8779 19.0939L32.3078 7.91371L30.6314 7.42065Z" fill="white"/>
<path d="M23.6308 22.238L9.81273 37.8433L3.94531 54.1636L5.72033 55.6798L8.02539 62.6936L10.5153 65.2082L26.885 21.3258L23.6308 22.238Z" fill="white"/>
<path d="M13.2882 67.5729L16.7026 68.0043L21.7688 68.8918L25.8859 66.9442L32.7024 50.7965L33.9721 48.9475L35.9566 33.071L34.8719 28.2513L31.0753 20.1528L28.1539 20.9663L11.3652 65.9828L13.2882 67.5729Z" fill="white"/>
<path d="M35.008 49.3303L33.6274 51.3519L27.6367 65.5643L29.3624 64.1591L32.6166 60.6584L33.7507 59.2901C35.1066 56.7755 37.2514 52.7078 37.461 52.1778C37.5226 51.734 37.8184 50.1808 38.3361 47.543L37.8924 44.6462L35.008 49.318V49.3303Z" fill="white"/>
</svg>
