<svg width="436" height="960" viewBox="0 0 436 960" fill="none" xmlns="http://www.w3.org/2000/svg">
<path d="M431.099 599.883L387.968 669.4L410.97 485.88L431.099 599.883Z" stroke="#B9040F" stroke-opacity="0.2" stroke-width="0.5"/>
<path d="M404.493 257.754L390.532 364.334L346.798 270.571L364.673 131.489L404.493 257.754Z" stroke="#B9040F" stroke-opacity="0.2" stroke-width="0.5"/>
<path d="M329.513 34.4893L348.019 66.875L351.737 94.2598L330.474 88.0156L330.433 88.0039L330.39 88.0059L290.211 90.2383L290.155 90.2412L290.106 90.2676L105.327 189.262C91.2857 177.965 42.5665 134.188 8.16992 102.704L81.1982 51.3955L194.13 17.4131L296.831 0.268555L329.513 34.4893Z" stroke="#B9040F" stroke-opacity="0.2" stroke-width="0.5"/>
<path d="M1.24609 117.433C24.1775 138.294 75.2035 184.564 94.3164 200.092L47.1367 269.836L26.8516 267.961L26.752 267.951L26.6729 268.013L-4.74902 292.911L-4.78418 292.939L-4.80762 292.977L-22.3369 322.135L-32.3232 274.232L-15.3447 221.755L-15.3389 221.736L-15.3359 221.717L1.24609 117.433Z" stroke="#B9040F" stroke-opacity="0.2" stroke-width="0.5"/>
<path d="M38.624 284.56L-45.5713 441.724L-37.1445 369.092L-20.5137 347.949L-20.5127 347.948L-17.7842 344.423L-17.7744 344.411L-17.7666 344.397L5.9043 304.085L31.374 283.917L38.624 284.56Z" stroke="#B9040F" stroke-opacity="0.2" stroke-width="0.5"/>
<path d="M351.761 110.419L331.891 265.778L222.848 296.297L222.776 296.318L222.728 296.372L25.4395 519.072L25.4082 519.109L25.3916 519.153L-56.0703 745.873L-86.2754 729.753L-97.7441 674.12L-56.7197 508.31L-56.7207 508.309L-50.5469 483.613L57.2588 282.422L110.105 204.353L294.412 105.506L328.655 103.623L351.761 110.419Z" stroke="#B9040F" stroke-opacity="0.2" stroke-width="0.5"/>
<path d="M48.366 907.861L13.9978 873.153L-18.092 775.51L-18.1135 775.444L-18.1672 775.398L-42.762 754.391L38.8953 527.26L231.294 309.976L276.08 297.421L48.366 907.861Z" stroke="#B9040F" stroke-opacity="0.2" stroke-width="0.5"/>
<path d="M387.512 393.632L402.606 460.699L374.975 681.749L357.324 707.455L357.31 707.476L357.3 707.499L262.385 932.343L205.192 959.397L134.701 947.049L134.689 947.047L87.1992 941.046L60.6064 919.057L294.36 292.279L334.728 281.038L387.512 393.632Z" stroke="#B9040F" stroke-opacity="0.2" stroke-width="0.5"/>
<path d="M435.746 662.263C428.554 698.909 424.436 720.527 423.566 726.76C422.088 730.481 413.912 746.448 403.734 765.883C393.544 785.34 381.36 808.25 371.918 825.76L356.138 844.799L310.83 893.54L287.581 912.47L370.63 715.442L389.847 687.306L389.89 687.243V687.064L429.674 622.627L435.746 662.263Z" stroke="#B9040F" stroke-opacity="0.2" stroke-width="0.5"/>
</svg>
