<svg width="447" height="803" viewBox="0 0 447 803" fill="none" xmlns="http://www.w3.org/2000/svg">
<path d="M442.685 501.948L406.7 559.944L425.892 406.837L442.685 501.948Z" stroke="#B9040F" stroke-opacity="0.2" stroke-width="0.5"/>
<path d="M420.423 215.683L408.761 304.714L372.229 226.395L387.161 110.211L420.423 215.683Z" stroke="#B9040F" stroke-opacity="0.2" stroke-width="0.5"/>
<path d="M357.692 28.8838L373.169 55.9697L376.272 78.8154L358.539 73.6084L358.498 73.5967L358.455 73.5986L324.835 75.4668L324.78 75.4697L324.732 75.4961L170.141 158.317C158.371 148.844 117.667 112.269 88.9034 85.9424L149.963 43.043L244.444 14.6113L330.362 0.268555L357.692 28.8838Z" stroke="#B9040F" stroke-opacity="0.2" stroke-width="0.5"/>
<path d="M83.0737 98.3442C102.277 115.813 144.867 154.432 160.868 167.436L121.424 225.744L104.474 224.177L104.375 224.168L104.295 224.23L78.0034 245.063L77.9683 245.091L77.9448 245.13L63.3306 269.439L54.9976 229.468L69.2017 185.568L69.2075 185.549L69.2104 185.53L83.0737 98.3442Z" stroke="#B9040F" stroke-opacity="0.2" stroke-width="0.5"/>
<path d="M114.256 238.142L43.9351 369.407L50.9595 308.858L64.8687 291.173L64.8707 291.172L67.1529 288.223L67.1627 288.21L67.1714 288.197L86.9742 254.472L108.267 237.611L114.256 238.142Z" stroke="#B9040F" stroke-opacity="0.2" stroke-width="0.5"/>
<path d="M376.295 92.4233L359.677 222.36L268.46 247.889L268.39 247.91L268.341 247.964L103.259 434.31L103.227 434.346L103.21 434.391L35.0625 624.056L9.84668 610.599L0.255859 564.076L34.5342 425.531L39.7451 404.681L129.95 236.336L174.16 171.025L328.364 88.3228L357.001 86.7485L376.295 92.4233Z" stroke="#B9040F" stroke-opacity="0.2" stroke-width="0.5"/>
<path d="M122.456 759.584L93.7512 730.594L66.9026 648.901L66.8801 648.833L66.8274 648.789L46.2688 631.229L114.583 441.211L275.561 259.411L312.948 248.93L122.456 759.584Z" stroke="#B9040F" stroke-opacity="0.2" stroke-width="0.5"/>
<path d="M406.215 329.386L418.844 385.495L395.725 570.443L380.962 591.944L380.948 591.965L380.937 591.988L301.523 780.113L253.694 802.739L194.721 792.409L194.71 792.407L154.984 787.388L132.763 769.014L328.341 244.601L362.065 235.209L406.215 329.386Z" stroke="#B9040F" stroke-opacity="0.2" stroke-width="0.5"/>
<path d="M446.574 554.153C440.558 584.805 437.112 602.892 436.383 608.113C435.14 611.234 428.305 624.587 419.793 640.839C411.268 657.119 401.073 676.286 393.173 690.937L379.971 706.865L342.06 747.649L322.739 763.381L392.165 598.67L408.243 575.131L408.286 575.068V574.917L441.511 521.103L446.574 554.153Z" stroke="#B9040F" stroke-opacity="0.2" stroke-width="0.5"/>
</svg>
