<svg xmlns="http://www.w3.org/2000/svg" width="32" height="32" viewBox="0 0 32 32" fill="none">
  <path d="M13.3323 5.33341H9.59896C8.10548 5.33341 7.35819 5.33341 6.78776 5.62406C6.28599 5.87973 5.87834 6.28738 5.62268 6.78914C5.33203 7.35958 5.33203 8.10687 5.33203 9.60034V22.4003C5.33203 23.8938 5.33203 24.6402 5.62268 25.2106C5.87834 25.7124 6.28599 26.1207 6.78776 26.3764C7.35763 26.6667 8.10402 26.6667 9.59458 26.6667H22.4028C23.8934 26.6667 24.6387 26.6667 25.2086 26.3764C25.7103 26.1207 26.1193 25.712 26.375 25.2102C26.6654 24.6403 26.6654 23.8948 26.6654 22.4042V18.6667M21.332 6.66675L13.332 14.6667V18.6667H17.332L25.332 10.6667M21.332 6.66675L25.332 2.66675L29.332 6.66675L25.332 10.6667M21.332 6.66675L25.332 10.6667" stroke="#B9040F" stroke-width="2" stroke-linecap="round" stroke-linejoin="round"/>
</svg>
