<svg xmlns="http://www.w3.org/2000/svg" width="32" height="32" viewBox="0 0 32 32" fill="none">
  <path d="M28 26.6667C28 24.3445 25.7738 22.369 22.6667 21.6368M20 26.6667C20 23.7212 16.4183 21.3334 12 21.3334C7.58172 21.3334 4 23.7212 4 26.6667M20 17.3334C22.9455 17.3334 25.3333 14.9456 25.3333 12.0001C25.3333 9.05456 22.9455 6.66675 20 6.66675M12 17.3334C9.05448 17.3334 6.66667 14.9456 6.66667 12.0001C6.66667 9.05456 9.05448 6.66675 12 6.66675C14.9455 6.66675 17.3333 9.05456 17.3333 12.0001C17.3333 14.9456 14.9455 17.3334 12 17.3334Z" stroke="#B9040F" stroke-width="2" stroke-linecap="round" stroke-linejoin="round"/>
</svg>
