<svg width="32" height="32" viewBox="0 0 32 32" fill="none" xmlns="http://www.w3.org/2000/svg">
<path d="M15.9987 10.6667L5.33203 21.3333V26.6667L10.6654 26.6666L21.332 16M15.9987 10.6667L19.8235 6.84179L19.8258 6.83952C20.3523 6.31301 20.6161 6.04929 20.9201 5.95051C21.1879 5.8635 21.4763 5.8635 21.7441 5.95051C22.0479 6.04922 22.3113 6.31264 22.8371 6.8384L25.1568 9.15813C25.6849 9.68615 25.949 9.95029 26.0479 10.2547C26.1349 10.5225 26.1349 10.811 26.0479 11.0788C25.949 11.383 25.6853 11.6467 25.158 12.174L25.1569 12.1751L21.332 16M15.9987 10.6667L21.332 16" stroke="#B9040F" stroke-width="2" stroke-linecap="round" stroke-linejoin="round"/>
</svg>
