<svg xmlns="http://www.w3.org/2000/svg" width="32" height="48" viewBox="0 0 32 48" fill="none">
  <g clip-path="url(#clip0_social_phone)">
    <path fill-rule="evenodd" clip-rule="evenodd" d="M3.28739 0.01875L28.6125 0L29.2506 0.234375C29.604 0.365625 30.1144 0.6375 30.3794 0.834375C30.6543 1.02187 31.0174 1.39688 31.1941 1.65C31.3708 1.90313 31.6162 2.34375 31.95 3.14062V44.8594L31.734 45.375C31.6162 45.6562 31.3708 46.0969 31.1941 46.35C31.0174 46.6031 30.6444 46.9781 30.3794 47.1656C30.1046 47.3625 29.604 47.6344 28.6125 48H3.38555L2.74751 47.7656C2.39414 47.6344 1.88371 47.3625 1.61868 47.1656C1.34383 46.9781 0.980638 46.6031 0.803951 46.35C0.627264 46.0969 0.381866 45.6562 0.0481232 44.8594L0.0186753 24.3281C-0.000956595 9.15937 0.0186753 3.64687 0.107019 3.23438C0.165915 2.925 0.332786 2.45625 0.460393 2.20312C0.597816 1.94062 0.833399 1.59375 0.970822 1.41563C1.10825 1.24688 1.42236 0.965625 1.66776 0.7875C1.91315 0.61875 2.3745 0.375 2.69843 0.24375L3.28739 0.01875ZM2.77696 1.62187C2.62972 1.69687 2.32542 1.95 2.11929 2.175C1.90334 2.4 1.65794 2.72813 1.57941 2.91563C1.44199 3.20625 1.42236 5.35313 1.42236 24.0094C1.42236 42.6656 1.44199 44.8031 1.57941 45.1031C1.65794 45.2812 1.90334 45.6094 2.11929 45.8344C2.32542 46.0594 2.6788 46.3406 2.89475 46.4437L3.28739 46.65H28.7107C29.3978 46.2656 29.7414 45.9937 29.9279 45.7875C30.1144 45.5906 30.3303 45.2812 30.4187 45.1031C30.5561 44.8031 30.5757 42.7406 30.5757 24.0094C30.5757 5.35313 30.5561 3.20625 30.4187 2.91563C30.3401 2.72813 30.0947 2.4 29.8788 2.175C29.6727 1.95 29.3193 1.67813 29.1033 1.56563L28.7107 1.36875C9.23585 1.34063 3.46407 1.36875 3.31683 1.40625C3.1696 1.44375 2.9242 1.5375 2.77696 1.62187ZM8.57819 2.68125L9.31438 3.8625C9.72665 4.51875 10.1684 5.15625 10.3058 5.29688C10.4432 5.42812 10.7279 5.60625 10.9438 5.68125C11.2776 5.80312 12.0727 5.82187 20.9855 5.775L21.4076 5.49375C21.7119 5.27812 22.026 4.875 23.4297 2.68125L25.4813 2.65312C26.6592 2.63437 27.68 2.6625 27.8763 2.71875C28.0628 2.76562 28.3671 2.95312 28.5536 3.12187C28.7401 3.29062 28.9659 3.6 29.0641 3.80625C29.2408 4.1625 29.2506 4.92188 29.2506 21.4031C29.2506 36.7687 29.2309 38.6719 29.0935 38.9812C29.015 39.1781 28.8285 39.4594 28.6813 39.6C28.534 39.75 28.2395 39.9469 28.0236 40.05C27.6506 40.2094 27.1107 40.2188 15.999 40.2188C4.97573 40.2188 4.34751 40.2094 3.9745 40.05C3.75855 39.9563 3.43463 39.7219 3.25794 39.5344C3.09107 39.3469 2.90456 39.0375 2.84567 38.8406C2.78677 38.6156 2.74751 32.4188 2.74751 21.3563C2.74751 6.09375 2.76714 4.19062 2.90456 3.87187C2.98309 3.675 3.1696 3.375 3.31683 3.19687C3.46407 3.01875 3.73892 2.82187 3.92542 2.75625C4.17082 2.67188 4.8972 2.64375 8.57819 2.68125ZM4.11193 21.45C4.12174 38.4094 4.12174 38.5406 4.31806 38.7281C4.51438 38.9062 4.64199 38.9156 15.999 38.9156C27.3561 38.9156 27.4837 38.9062 27.68 38.7281C27.8763 38.5406 27.8763 38.4094 27.8763 21.45C27.8763 6.375 27.8567 4.34062 27.7291 4.15312C27.5819 3.94687 27.5328 3.94687 25.8837 3.94687H24.1954C23.3316 5.3625 22.8898 5.95312 22.6543 6.17813C22.4187 6.40313 21.9868 6.69375 21.6923 6.83438L21.1524 7.0875H10.8457C10.0113 6.69375 9.57941 6.40313 9.34383 6.17813C9.10825 5.95312 8.66653 5.3625 8.36223 4.85625L7.80272 3.94687C4.48493 3.94687 4.41622 3.94687 4.26898 4.15312C4.11193 4.34062 4.10211 5.71875 4.11193 21.45ZM19.2383 3.57187L19.4837 3.80625C19.6211 3.92812 19.7291 4.14375 19.7291 4.275C19.7291 4.41562 19.6309 4.575 19.4641 4.69687C19.199 4.875 19.0518 4.88437 15.999 4.88437C12.9463 4.88437 12.799 4.875 12.534 4.69687C12.3573 4.56562 12.269 4.41562 12.2592 4.22812C12.2494 4.03125 12.3279 3.9 12.5242 3.75937C12.7794 3.57187 12.907 3.57187 19.2383 3.57187ZM15.9205 41.1656C17.0984 41.1656 18.2665 41.2031 18.5217 41.25C18.7868 41.3063 19.1794 41.475 19.4052 41.625C19.6408 41.7844 19.9451 42.1125 20.0923 42.3562C20.3181 42.7312 20.3671 42.9094 20.3671 43.4625C20.3573 43.9406 20.3082 44.2125 20.161 44.4938C20.0432 44.7 19.7978 44.9906 19.6211 45.1312C19.4346 45.2812 19.15 45.4688 18.9929 45.5531C18.7475 45.6844 18.2862 45.7125 16.3426 45.7406C14.8997 45.7594 13.8003 45.7313 13.496 45.675C13.2211 45.6188 12.8187 45.4406 12.5831 45.2906C12.3573 45.1313 12.053 44.8031 11.9058 44.5594C11.68 44.2031 11.6309 43.9969 11.6309 43.5094C11.6309 43.0406 11.6898 42.7875 11.8763 42.4313C12.0138 42.1781 12.2984 41.8406 12.5144 41.6813C12.7303 41.5219 13.1033 41.3438 13.3487 41.2875C13.6138 41.2219 14.615 41.175 15.9205 41.1656ZM13.1524 42.9094C13.0444 43.0594 12.9463 43.3125 12.9561 43.4812C12.9561 43.7062 13.0543 43.875 13.2997 44.1188L13.6432 44.4469H18.3745C18.9635 43.8656 19.042 43.7062 19.042 43.4625C19.042 43.2281 18.9536 43.0406 18.7573 42.825L18.4727 42.525C14.8408 42.4875 13.6923 42.5156 13.5745 42.5625C13.4567 42.6094 13.2702 42.7688 13.1524 42.9094ZM16.588 16.0781C17.7267 16.0969 18.7573 16.1719 19.3365 16.275C19.8469 16.3594 20.6911 16.5562 21.2015 16.7156C21.7119 16.8656 22.4383 17.1469 22.8211 17.325C23.1941 17.5031 23.7733 17.8313 24.0972 18.0563C24.4211 18.2812 24.8923 18.6656 25.1377 18.9094C25.3929 19.1625 25.7561 19.6031 25.9524 19.9031C26.1487 20.2031 26.4236 20.7656 26.5708 21.1688C26.7868 21.7875 26.826 22.0406 26.8162 22.8375C26.8064 23.3531 26.7279 24.0281 26.6494 24.3375C26.561 24.6469 26.3941 25.0406 26.2665 25.2281C26.1389 25.4062 25.8935 25.6969 25.707 25.8656C25.5205 26.0344 25.1475 26.2875 24.8825 26.4187C24.6076 26.55 24.1659 26.6813 23.9009 26.7281C23.577 26.775 22.9095 26.7375 21.9377 26.6156C20.8579 26.4844 20.3181 26.3719 19.9254 26.2031C19.6015 26.0625 19.199 25.7719 18.9144 25.4812C18.6395 25.1906 18.3647 24.7875 18.2469 24.4969C18.1487 24.225 18.0309 23.7094 17.9132 22.6969L17.3733 22.5844C17.0788 22.5281 16.4309 22.4813 15.95 22.4813C15.4592 22.4813 14.8309 22.5281 14.5463 22.5844C14.2714 22.6406 14.0359 22.725 14.0359 22.7625C14.0359 22.8 13.9868 23.1469 13.9377 23.5406C13.8788 23.925 13.7316 24.45 13.604 24.7125C13.4665 24.9656 13.1426 25.3781 12.8678 25.6219C12.5929 25.8656 12.1806 26.1469 11.9451 26.25C11.6997 26.3625 10.9144 26.5125 9.96223 26.625C8.51929 26.8031 8.3426 26.8031 7.82236 26.6813C7.51806 26.5969 7.14506 26.475 6.988 26.4C6.84076 26.3344 6.52665 26.1094 6.29107 25.9125C6.05548 25.7062 5.74137 25.3125 5.58432 24.9938C5.36837 24.5719 5.27021 24.1969 5.19168 23.5406C5.1426 23.0438 5.12297 22.4156 5.16223 22.1344C5.2015 21.8438 5.30947 21.3656 5.40763 21.0563C5.50579 20.7469 5.73156 20.2781 5.89843 20.025C6.0653 19.7625 6.3696 19.3687 6.56591 19.1437C6.76223 18.9187 7.18432 18.5438 7.50825 18.3094C7.83217 18.0844 8.45058 17.7188 8.88248 17.5125C9.31438 17.3062 10.0408 17.0156 10.5021 16.8656C10.9635 16.7156 11.7782 16.5094 12.3181 16.4062C12.8579 16.3031 13.6334 16.1813 14.0359 16.1344C14.4383 16.0875 15.5868 16.0594 16.588 16.0781ZM13.0543 17.5969C12.5438 17.6812 11.6997 17.8687 11.1892 18.0281C10.6788 18.1781 9.85426 18.5062 9.37328 18.7406C8.76469 19.0406 8.28371 19.3594 7.83217 19.7812C7.42972 20.1656 7.08616 20.5875 6.9291 20.9156C6.79168 21.1969 6.63463 21.6562 6.57573 21.9469C6.51683 22.2281 6.4972 22.7719 6.52665 23.1656C6.56591 23.55 6.64444 24.0094 6.70334 24.1969C6.76223 24.375 6.96837 24.6844 7.15487 24.8812C7.36101 25.0875 7.69475 25.2938 7.94996 25.3688C8.3426 25.5 8.53892 25.4906 9.66776 25.3594C10.3647 25.2844 11.1303 25.1531 11.3561 25.0781C11.6309 24.9937 11.896 24.7969 12.1217 24.5437C12.3082 24.3281 12.5046 23.9625 12.5635 23.7469C12.6125 23.5312 12.6616 23.1469 12.6714 22.9031C12.6714 22.6594 12.7205 22.3125 12.7892 22.1344C12.8579 21.9469 13.0346 21.7406 13.2015 21.6469C13.3586 21.5625 13.869 21.4125 14.3303 21.3281C14.9487 21.2062 15.469 21.1781 16.3426 21.2156C16.9905 21.2437 17.8052 21.3281 18.1586 21.4125C18.5119 21.4969 18.8947 21.6656 19.0224 21.7781C19.2089 21.9563 19.2678 22.1438 19.3463 22.9031C19.3954 23.4563 19.5033 23.9531 19.6211 24.1687C19.7193 24.3656 19.9156 24.6094 20.0432 24.7312C20.161 24.8437 20.426 24.9937 20.6125 25.0687C20.799 25.1437 21.5254 25.275 22.2322 25.3594C23.2138 25.4813 23.6064 25.5 23.9205 25.4156C24.1659 25.3594 24.5095 25.1719 24.7451 24.9656C24.961 24.7687 25.2064 24.45 25.2849 24.2438C25.3733 24.0188 25.442 23.5031 25.4518 22.9781C25.4714 22.3031 25.4224 21.9469 25.2751 21.525C25.177 21.2156 24.9021 20.7094 24.6862 20.4C24.4604 20.0906 24.0187 19.6313 23.6947 19.3781C23.3806 19.125 22.6739 18.7125 22.134 18.4688C21.5941 18.2156 20.7107 17.9062 20.1708 17.7844C19.6309 17.6531 18.8162 17.5031 18.3549 17.4469C17.8935 17.3906 16.853 17.3531 16.0481 17.3625C15.2334 17.3719 14.4383 17.3906 14.2813 17.4094C14.1144 17.4281 13.5647 17.5125 13.0543 17.5969Z" fill="#B9040F"/>
  </g>
  <defs>
    <clipPath id="clip0_social_phone">
      <rect width="32" height="48" fill="white"/>
    </clipPath>
  </defs>
</svg>
