<svg xmlns="http://www.w3.org/2000/svg" width="48" height="48" viewBox="0 0 48 48" fill="none">
  <g clip-path="url(#clip0_social_mail)">
    <path fill-rule="evenodd" clip-rule="evenodd" d="M25.15 0L35.2 10.05V19.3L36.18 19.46C36.71 19.55 37.55 19.76 38.05 19.92C38.54 20.08 39.33 20.39 39.8 20.61C40.27 20.83 41.1 21.31 41.65 21.68C42.29 22.1 43.05 22.74 43.75 23.45C44.43 24.12 45.1 24.92 45.49 25.5C45.84 26.02 46.26 26.72 46.43 27.05C46.59 27.38 46.87 28.03 47.05 28.5C47.23 28.97 47.47 29.78 47.59 30.3C47.71 30.82 47.85 31.44 47.9 31.68C47.96 31.91 48 32.74 48 33.52C48 34.67 47.95 35.2 47.74 36.2C47.6 36.89 47.37 37.79 47.24 38.2C47.1 38.61 46.79 39.35 46.55 39.85C46.32 40.34 45.84 41.18 45.49 41.7C45.14 42.22 44.42 43.08 43.9 43.61C43.38 44.14 42.61 44.82 42.2 45.13C41.79 45.43 41 45.93 40.45 46.23C39.9 46.54 38.98 46.95 38.4 47.15C37.82 47.35 36.76 47.62 36.05 47.76C34.93 47.98 34.56 48.01 33.35 47.98C32.58 47.95 31.54 47.85 31.05 47.76C30.55 47.66 29.79 47.47 29.35 47.33C28.91 47.2 28.02 46.83 26.2 45.95L25.82 46.15C25.46 46.35 25.23 46.35 13.8 46.38C4.81 46.4 2.05 46.38 1.7 46.28C1.39 46.2 1.1 46.01 0.75 45.66C0.44 45.35 0.2 44.99 0.12 44.75C0.03 44.44 0 39.71 0 24.8C0 9.89 0.03 5.16 0.12 4.85C0.2 4.61 0.44 4.25 0.75 3.95C1.05 3.64 1.41 3.4 1.65 3.32C1.88 3.26 2.65 3.2 4.8 3.2V2.63C4.8 2.31 4.86 1.87 4.93 1.66C4.99 1.44 5.23 1.07 5.45 0.83C5.67 0.6 6.01 0.32 6.2 0.21C6.54 0.02 6.79 0.01 25.15 0ZM6.65 1.85L6.41 2.09L6.4 39.5L6.9 40H20.7C20.44 39.42 20.22 38.82 20.03 38.3C19.84 37.78 19.6 36.9 19.49 36.35C19.37 35.8 19.26 34.83 19.23 34.2C19.2 33.57 19.22 32.62 19.28 32.1C19.35 31.58 19.51 30.68 19.66 30.1C19.81 29.52 20.05 28.76 20.2 28.4L20.47 27.75C19.37 21.11 19.2 19.88 19.26 19.7C19.31 19.57 19.46 19.39 19.6 19.31C19.83 19.18 20.19 19.23 23.55 19.84C25.58 20.2 27.34 20.5 27.45 20.5C27.56 20.5 27.96 20.37 28.35 20.21C28.73 20.06 29.52 19.81 30.1 19.66C30.68 19.51 31.7 19.34 32.38 19.27L33.6 19.15V11.2C27.18 11.2 25.93 11.16 25.65 11.08C25.41 11 25.05 10.76 24.75 10.45C24.44 10.15 24.2 9.79 24.12 9.55C24.04 9.27 24 8.02 24 5.37V1.6H6.89L6.65 1.85ZM25.6 9.1L26.1 9.6H32.45C27.22 4.33 25.68 2.8 25.65 2.8C25.62 2.8 25.6 4.22 25.6 5.95V9.1ZM1.61 5.3L1.6 44.3L2.1 44.8H24.5C22.91 43.21 22.27 42.49 22.05 42.18L21.65 41.61C8.8 41.6 6.75 41.57 6.45 41.48C6.21 41.41 5.86 41.17 5.55 40.86C5.24 40.55 5 40.2 4.92 39.95C4.83 39.65 4.8 35.4 4.8 22.18V4.8C2.14 4.8 2.08 4.81 1.85 5.05L1.61 5.3ZM30.25 21.26C29.92 21.35 29.21 21.61 28.68 21.83L27.71 22.22C22.55 21.29 21.04 21.02 21.03 21.04C21.01 21.05 21.26 22.59 21.57 24.46L22.13 27.86C21.58 29.25 21.33 30.02 21.21 30.46C21.1 30.9 20.96 31.66 20.89 32.16C20.82 32.71 20.8 33.52 20.84 34.26C20.87 34.92 20.99 35.84 21.09 36.31C21.2 36.78 21.41 37.5 21.56 37.91C21.7 38.32 21.96 38.93 22.13 39.26C22.29 39.59 22.67 40.24 22.98 40.71C23.3 41.22 23.96 41.99 24.59 42.62C25.22 43.26 26 43.91 26.5 44.23C26.97 44.54 27.64 44.93 28 45.11C28.36 45.29 29.1 45.58 29.65 45.77C30.2 45.95 31.17 46.17 31.8 46.27C32.66 46.39 33.27 46.42 34.2 46.37C34.89 46.34 35.83 46.22 36.3 46.12C36.77 46.01 37.49 45.8 37.9 45.65C38.31 45.51 38.97 45.23 39.35 45.03C39.74 44.84 40.43 44.42 40.9 44.1C41.37 43.78 42.12 43.15 42.57 42.69C43.02 42.23 43.5 41.72 43.63 41.56C43.76 41.39 44.05 40.99 44.27 40.66C44.49 40.33 44.83 39.74 45.03 39.36C45.22 38.97 45.51 38.28 45.68 37.81C45.84 37.34 46.06 36.58 46.16 36.11C46.3 35.48 46.34 34.83 46.34 33.61C46.34 32.39 46.3 31.74 46.16 31.11C46.06 30.64 45.84 29.88 45.68 29.41C45.51 28.94 45.22 28.24 45.03 27.86C44.83 27.47 44.49 26.89 44.27 26.56C44.05 26.23 43.76 25.82 43.63 25.66C43.5 25.49 43.02 24.99 42.57 24.53C42.12 24.07 41.37 23.44 40.9 23.12C40.43 22.8 39.74 22.38 39.35 22.18C38.97 21.99 38.31 21.71 37.9 21.56C37.49 21.41 36.77 21.21 36.3 21.1C35.76 20.98 34.92 20.89 34 20.86C33.0333 20.8267 32.2667 20.8567 31.7 20.95C31.23 21.03 30.58 21.17 30.25 21.26ZM8.49 12.81H13.1L13.35 13.06C13.51 13.21 13.6 13.42 13.6 13.61C13.6 13.79 13.51 14.01 13.11 14.41H8.5L8.25 14.16C8.09 14 8 13.8 8.01 13.6C8.01 13.42 8.11 13.2 8.25 13.05L8.49 12.81ZM15.69 12.81H31.5L31.75 13.06C31.91 13.22 32 13.43 32 13.61C32 13.8 31.91 14.01 31.51 14.41H15.7L15.45 14.16C15.29 14 15.2 13.81 15.21 13.61C15.21 13.43 15.31 13.21 15.45 13.06L15.69 12.81ZM8.49 16.01H16.3L16.55 16.26C16.71 16.42 16.8 16.62 16.8 16.81C16.8 16.99 16.71 17.21 16.31 17.61H8.5L8.25 17.36C8.09 17.2 8 17 8 16.81C8.01 16.62 8.11 16.4 8.25 16.26L8.49 16.01ZM18.89 16.01H31.5L31.75 16.26C31.9 16.41 32 16.62 32 16.81C32 16.99 31.9 17.2 31.51 17.61H18.9L18.65 17.36C18.49 17.19 18.4 17 18.4 16.8C18.41 16.62 18.5 16.4 18.65 16.25L18.89 16.01ZM8.49 19.21H17.1L17.35 19.46C17.5 19.62 17.6 19.82 17.6 20.01C17.6 20.19 17.5 20.41 17.11 20.81H8.5L8.25 20.56C8.09 20.4 8 20.2 8 20.01C8.01 19.82 8.1 19.6 8.25 19.46L8.49 19.21ZM8.49 22.41H17.1L17.35 22.66C17.5 22.81 17.6 23.02 17.6 23.21C17.6 23.39 17.5 23.6 17.11 24.01H8.5L8.25 23.76C8.09 23.6 8 23.4 8 23.2C8 23.02 8.1 22.8 8.25 22.65L8.49 22.41ZM33.75 23.25C34.21 23.27 34.61 23.36 34.95 23.52C35.22 23.65 35.63 23.94 35.85 24.16C36.07 24.38 36.35 24.78 36.47 25.04C36.6 25.3 36.73 25.79 36.76 26.14C36.81 26.59 36.78 26.91 36.66 27.31C36.56 27.61 36.32 28.08 36.12 28.35C35.8733 28.6833 35.5333 28.9667 35.1 29.2C34.49 29.54 34.38 29.56 33.6 29.56C32.82 29.56 32.69 29.53 32.11 29.21C31.75 29.02 31.34 28.7 31.18 28.51C31.02 28.32 30.8 27.97 30.7 27.74C30.59 27.5 30.47 27.03 30.43 26.69C30.38 26.22 30.41 25.92 30.54 25.51C30.64 25.21 30.85 24.77 31.01 24.54C31.17 24.3 31.49 23.98 31.72 23.82C31.96 23.67 32.35 23.46 32.6 23.37C32.9 23.26 33.27 23.22 33.75 23.25ZM32.33 25.4C32.2 25.57 32.07 25.86 32.04 26.04C32 26.22 32.01 26.54 32.05 26.76C32.0967 27.0267 32.24 27.2833 32.48 27.53C32.69 27.74 32.99 27.92 33.2 27.96C33.39 28 33.72 28.01 33.92 27.97C34.18 27.93 34.43 27.78 34.7 27.51C34.93 27.28 35.12 26.98 35.16 26.79C35.19 26.61 35.19 26.29 35.16 26.09C35.12 25.88 34.97 25.57 34.82 25.4C34.67 25.22 34.4 25.02 34.22 24.95C34.04 24.87 33.75 24.81 33.57 24.82C33.39 24.82 33.09 24.88 32.91 24.95C32.72 25.03 32.46 25.23 32.33 25.4ZM8.49 25.61H17.9L18.15 25.86C18.3 26.02 18.4 26.23 18.4 26.41C18.4 26.6 18.3 26.81 17.91 27.21H8.5L8.25 26.96C8.09 26.8 8 26.6 8 26.41C8 26.22 8.1 26 8.25 25.86L8.49 25.61ZM8.49 28.81H17.9L18.15 29.06C18.3 29.21 18.4 29.42 18.4 29.61C18.4 29.79 18.3 30 17.9 30.41H8.5L8.25 30.16C8.08 30 8 29.8 8 29.6C8 29.42 8.1 29.2 8.25 29.05L8.49 28.81ZM29.29 31.21H36.29L36.79 31.71L36.78 38.72L37.04 38.97C37.26 39.18 37.39 39.21 37.99 39.21C38.63 39.21 38.72 39.24 38.96 39.49C39.22 39.75 39.23 39.8 39.16 40.41C39.12 40.79 38.98 41.32 38.81 41.66C38.66 41.99 38.33 42.48 38.09 42.75C37.8 43.06 37.38 43.36 36.15 43.96H34.8C33.5 43.96 33.42 43.95 32.79 43.66C32.44 43.49 31.93 43.15 31.66 42.91C31.35 42.62 31.05 42.2 30.44 40.97L30.39 36.01H29.84C29.39 36.01 29.25 35.97 29.04 35.76C28.8 35.51 28.79 35.51 28.8 33.61C28.8 31.73 28.81 31.7 29.04 31.46L29.29 31.21ZM30.4 34.41C31.41 34.41 31.55 34.45 31.75 34.66L32 34.91C32.01 39.46 32.05 40.49 32.13 40.76C32.2 41 32.44 41.35 32.75 41.66C33.06 41.97 33.41 42.21 33.65 42.28C33.87 42.35 34.39 42.4 34.8 42.4C35.22 42.4 35.73 42.35 35.95 42.28C36.2 42.21 36.55 41.97 36.88 41.64C37.17 41.35 37.4 41.05 37.41 40.98C37.41 40.91 37.17 40.78 36.88 40.69C36.49 40.57 36.23 40.39 35.9 40.03C35.66 39.77 35.4 39.37 35.33 39.15C35.24 38.88 35.21 37.86 35.21 35.78L35.2 32.81H30.4V34.41ZM8.49 32.01H17.1L17.35 32.26C17.51 32.41 17.6 32.62 17.6 32.81C17.6 32.99 17.51 33.2 17.11 33.61H8.5L8.25 33.36C8.09 33.2 8.01 33 8.01 32.8C8.01 32.62 8.11 32.4 8.25 32.25L8.49 32.01ZM8.49 35.21H17.1L17.35 35.46C17.51 35.62 17.6 35.83 17.6 36.01C17.6 36.2 17.51 36.41 17.11 36.81H8.5L8.25 36.56C8.09 36.4 8 36.2 8.01 36.01C8.01 35.83 8.11 35.61 8.25 35.46L8.49 35.21Z" fill="#B9040F"/>
  </g>
  <defs>
    <clipPath id="clip0_social_mail">
      <rect width="48" height="48" fill="white"/>
    </clipPath>
  </defs>
</svg>
