<svg xmlns="http://www.w3.org/2000/svg" width="48" height="48" viewBox="0 0 48 48" fill="none">
  <g clip-path="url(#clip0_contacts_social)">
    <path fill-rule="evenodd" clip-rule="evenodd" d="M23.9534 0.00936687C25.1323 -8.12951e-06 25.6283 0.0468669 26.6201 0.234367C27.2844 0.365617 28.2388 0.599992 28.7253 0.759367C29.2119 0.918742 30.0353 1.25624 30.5499 1.49999C31.0645 1.75312 31.8598 2.20312 32.3277 2.51249C32.7861 2.82187 33.5253 3.38437 33.9557 3.75937C34.3861 4.14374 35.0785 4.85624 35.4809 5.34374C35.8926 5.83124 36.4633 6.60937 36.7534 7.07812C37.0341 7.53749 37.4177 8.24062 37.5955 8.62499C37.7733 9.00937 38.0633 9.74999 38.2411 10.2656C38.4095 10.7812 38.6435 11.6625 38.7557 12.2344C38.9242 13.0781 38.9616 13.5844 38.9616 15C38.9616 16.2844 38.9148 16.9687 38.7932 17.625C38.6996 18.1125 38.475 18.975 38.2973 19.5469C38.1195 20.1094 37.7639 21 37.5207 21.5156C37.268 22.0312 36.8283 22.8094 36.5382 23.25C36.2388 23.6906 35.7054 24.4031 35.3312 24.8344C34.9663 25.2656 34.3207 25.9219 33.8902 26.2875C33.4598 26.6531 32.7487 27.1969 32.2996 27.4969C31.8505 27.7969 31.0645 28.2469 30.5499 28.5C30.0353 28.7437 29.2119 29.0812 28.7253 29.2406C28.2388 29.4 27.3686 29.625 26.8072 29.7375C25.9745 29.9062 25.4505 29.9437 24.047 29.9437C22.6435 29.9437 22.1195 29.9062 21.2867 29.7375C20.716 29.6344 19.8177 29.3812 19.275 29.1937C18.7323 29.0062 17.9932 28.725 17.6376 28.5562C17.2727 28.3875 16.599 28.0125 16.1405 27.7312C15.6727 27.4406 14.8961 26.8687 14.4095 26.4656C13.923 26.0531 13.2119 25.3594 12.8376 24.9281C12.4633 24.4969 11.9019 23.7562 11.5932 23.2969C11.275 22.8281 10.8259 22.0312 10.5733 21.5156C10.33 21 9.97445 20.1094 9.79667 19.5469C9.6189 18.975 9.39433 18.1125 9.30077 17.625C9.17913 16.9687 9.13235 16.2844 9.13235 15C9.13235 13.5937 9.16977 13.0687 9.33819 12.2344C9.45048 11.6625 9.66568 10.8 9.8341 10.3125C9.99317 9.82499 10.33 8.99999 10.5733 8.48437C10.8259 7.96874 11.2283 7.22812 11.4809 6.84374C11.7335 6.45937 12.2668 5.74687 12.6598 5.26874C13.0528 4.79999 13.7265 4.10624 14.1569 3.74062C14.578 3.38437 15.2984 2.83124 15.7663 2.51249C16.2247 2.20312 16.9826 1.76249 17.4505 1.54687C17.909 1.32187 18.6668 1.00312 19.1347 0.843742C19.5932 0.674992 20.5476 0.421867 21.2399 0.281242C22.2879 0.0562419 22.7464 0.0187419 23.9534 0.00936687ZM22.344 2.92499C22.0446 3.22499 21.6142 3.79687 21.3803 4.19062C21.1464 4.59374 20.7908 5.35312 20.585 5.88749C20.3791 6.41249 20.2107 6.88124 20.2107 6.93749C20.2107 7.00312 21.5487 7.03124 24.047 7.03124C27.0505 7.03124 27.8832 7.00312 27.8832 6.90937C27.8832 6.85312 27.6961 6.32812 27.4622 5.76562C27.2283 5.19374 26.8633 4.43437 26.6481 4.07812C26.4236 3.71249 26.0212 3.18749 25.7312 2.90624C25.4505 2.61562 25.0575 2.30624 24.8704 2.22187C24.6739 2.13749 24.2902 2.06249 24.0283 2.06249C23.7569 2.06249 23.3826 2.13749 23.2049 2.22187C23.0271 2.31562 22.6341 2.62499 22.344 2.92499ZM17.6844 3.67499C17.3476 3.86249 16.7394 4.26562 16.3277 4.56562C15.916 4.87499 15.2142 5.49374 14.7557 5.96249C14.3066 6.42187 13.9417 6.85312 13.9417 6.90937C13.9417 7.00312 14.4095 7.02187 16.0095 7.00312L18.0774 6.98437C18.6949 5.24062 18.985 4.49999 19.116 4.21874C19.247 3.93749 19.4902 3.47812 19.6399 3.20624C19.8177 2.90624 19.8832 2.71874 19.8084 2.71874C19.7522 2.71874 19.378 2.85937 18.9943 3.02812C18.6107 3.19687 18.0212 3.48749 17.6844 3.67499ZM28.6879 3.70312C28.9873 4.26562 29.4084 5.24062 29.6236 5.85937L30.0166 6.98437C33.6844 7.02187 34.1522 7.00312 34.1522 6.90937C34.1522 6.85312 33.7592 6.39374 33.2821 5.90624C32.7955 5.41874 32.0283 4.74374 31.5698 4.42499C31.1113 4.09687 30.2692 3.59999 29.7078 3.31874C29.137 3.04687 28.5569 2.78437 28.4166 2.74687L28.1452 2.67187L28.6879 3.70312ZM10.1054 4.03124V5.99999H6.48439C3.02241 5.99999 2.84463 6.00937 2.55457 6.18749C2.34872 6.30937 2.21773 6.48749 2.15223 6.72187C2.08673 6.96562 2.05866 11.9062 2.10545 37.425L2.71363 37.9687H24.0283C44.2107 37.9687 45.3429 37.9594 45.5674 37.8094C45.6891 37.7156 45.8481 37.5 45.9136 37.3312C45.9978 37.125 46.0353 36.5531 46.0353 34.0312L5.0996 33.9844V32.0156L26.0119 31.9875C40.2996 31.9687 47.0364 31.9875 47.2797 32.0625C47.4949 32.1187 47.7008 32.2594 47.813 32.4375C47.9908 32.7 48.0002 32.85 47.9815 35.2312C47.9534 37.6781 47.9534 37.7437 47.7195 38.2406C47.5885 38.5406 47.2891 38.9344 47.0177 39.1781C46.7651 39.4219 46.344 39.6937 46.0821 39.7969C45.6329 39.975 45.3242 39.9844 31.0645 40.0312V42.2812C31.0645 44.3062 31.0832 44.5687 31.2423 44.8875C31.3452 45.075 31.5417 45.3469 31.6914 45.4875C31.8318 45.6281 32.0844 45.7875 32.2341 45.8437C32.3932 45.9094 33.0762 45.9844 34.9943 46.0781V48H13.0996V46.0781L14.344 46.0219C15.0271 45.9844 15.7101 45.9094 15.8598 45.8437C16.0189 45.7875 16.2622 45.6281 16.4119 45.4875C16.5522 45.3469 16.7581 45.075 16.8516 44.8781C17.0107 44.5687 17.0294 44.3062 17.0294 40.0312L9.75925 40.0031C2.81656 39.9844 2.461 39.975 2.01188 39.8062C1.72182 39.6937 1.34755 39.4219 1.02007 39.1031C0.645797 38.7281 0.439949 38.4281 0.09375 37.5V22.05C0.09375 8.91562 0.112463 6.54374 0.224744 6.14062C0.299598 5.88749 0.505446 5.48437 0.673867 5.24999C0.851645 5.01562 1.19784 4.68749 1.45048 4.51874C1.71246 4.34999 2.04931 4.17187 2.19901 4.12499C2.35808 4.08749 4.20135 4.04062 10.1054 4.03124ZM19.5651 9.49687C19.509 9.75937 19.406 10.425 19.3312 10.9687C19.2563 11.5125 19.1534 12.4031 19.116 12.9656L19.0411 13.9687H29.0528C28.9405 12.4031 28.8376 11.5125 28.7721 10.9687C28.6973 10.425 28.5943 9.75937 28.5382 9.49687L28.4446 8.99999H19.6587L19.5651 9.49687ZM30.6996 10.3219C30.8025 11.0156 30.9148 12.1219 30.9522 12.7781L31.0271 13.9781H36.9686C36.9686 13.65 36.9031 13.1906 36.8189 12.7594C36.744 12.3187 36.5663 11.5969 36.4353 11.1656C36.3043 10.725 36.061 10.0594 35.8832 9.68437L35.5651 9.00937C31.6446 9.00937 30.5125 9.01874 30.5125 9.02812C30.5125 9.03749 30.5967 9.61874 30.6996 10.3219ZM11.144 16.2469C11.144 16.3594 11.2095 16.8187 11.2844 17.2594C11.3686 17.6906 11.537 18.4125 11.668 18.8531C11.799 19.2844 12.0516 19.95 12.2294 20.325L12.5476 21.0094C16.4587 21.0094 17.6002 20.9906 17.6002 20.9812C17.6002 20.9719 17.516 20.3906 17.413 19.6969C17.3008 18.9937 17.1885 17.8875 17.1511 17.2312L17.0856 16.0312L11.144 16.0406V16.2469ZM19.1347 17.0437C19.1721 17.5969 19.2563 18.4875 19.3312 19.0312C19.406 19.575 19.509 20.2406 19.5651 20.5125L19.6587 21H28.454C28.5943 20.2406 28.6973 19.575 28.7721 19.0312C28.847 18.4875 28.9405 17.5969 28.9873 17.0344L29.0622 16.0312H19.0692L19.1347 17.0437ZM30.9522 17.2312C30.9148 17.8875 30.8025 18.9937 30.6996 19.6969C30.5967 20.3906 30.5125 20.9719 30.5125 20.9812C30.5125 20.9906 31.6446 21.0094 33.0388 21.0094H35.5651C36.061 19.95 36.3043 19.2844 36.4353 18.8531C36.5663 18.4125 36.744 17.6906 36.8283 17.2594C36.9031 16.8187 36.9686 16.3594 36.9686 16.2469V16.0406H31.0084L30.9522 17.2312ZM14.7745 24.0375C15.2236 24.5062 15.9253 25.125 16.337 25.4344C16.7487 25.7344 17.4224 26.175 17.8341 26.4C18.2458 26.625 18.854 26.9156 19.1908 27.0469C19.5277 27.1781 19.8364 27.2812 19.8739 27.2812C19.9113 27.2812 19.8645 27.1406 19.7616 26.9812C19.6587 26.8125 19.4247 26.3531 19.2283 25.9687C19.0411 25.5844 18.7043 24.7594 18.4891 24.1406L18.0961 23.0156C14.4002 22.9687 13.9604 22.9875 13.9511 23.0812C13.9511 23.1469 14.316 23.5781 14.7745 24.0375ZM20.5943 24.1219C20.8002 24.6469 21.1557 25.4062 21.3897 25.8094C21.6236 26.2031 22.054 26.775 22.3534 27.075C22.6435 27.375 23.0552 27.6937 23.261 27.7875C23.5323 27.9187 23.785 27.9469 24.1967 27.9187C24.6364 27.8906 24.861 27.8156 25.2072 27.5812C25.4505 27.4125 25.8435 27.0375 26.0774 26.7469C26.3113 26.4469 26.6575 25.9031 26.854 25.5469C27.0598 25.1812 27.3686 24.5062 27.5557 24.0469C27.7429 23.5781 27.8926 23.1469 27.8926 23.0906C27.8926 22.9969 27.0692 22.9687 24.0563 22.9687C21.5674 22.9687 20.2201 22.9969 20.2201 23.0625C20.2201 23.1094 20.3885 23.5875 20.5943 24.1219ZM29.6236 24.1875C29.4364 24.7312 29.0341 25.6594 28.7253 26.25C28.1639 27.3281 28.1639 27.3281 28.4259 27.2531C28.5756 27.2156 29.1557 26.9531 29.7171 26.6812C30.2879 26.4 31.1207 25.9031 31.5791 25.575C32.0376 25.2562 32.8049 24.5812 33.2914 24.0937C33.778 23.6062 34.1709 23.1469 34.1709 23.0906C34.1616 22.9969 33.6844 22.9687 32.1031 22.9687C30.5405 22.9687 30.0353 22.9969 29.9978 23.0906C29.9791 23.1469 29.8014 23.6437 29.6236 24.1875ZM12.2294 9.67499C12.0516 10.05 11.8084 10.6969 11.6774 11.1094C11.5464 11.5219 11.378 12.2344 11.2937 12.7031C11.2095 13.1625 11.144 13.6406 11.144 13.7625V13.9687H17.0856C17.1978 12.1125 17.3101 11.0062 17.413 10.3125C17.516 9.61874 17.6002 9.03749 17.6002 9.02812C17.6002 9.00937 16.4587 8.99999 15.0739 8.99999H12.5382L12.2294 9.67499ZM19.0879 42.4406C19.0505 44.6625 19.0318 44.8969 18.8446 45.375C18.7323 45.6562 18.6388 45.9187 18.6388 45.9562C18.6388 45.9937 21.0809 46.0312 24.0657 46.0312C27.0505 46.0312 29.4926 45.9937 29.4926 45.9562C29.4926 45.9187 29.399 45.6562 29.2867 45.375C29.0902 44.8969 29.0715 44.6719 29.0528 42.4406L29.0247 40.0312H19.116L19.0879 42.4406ZM38.0166 4.01249L45.9136 4.06874L46.4189 4.34999C46.6996 4.49999 47.0926 4.81874 47.2891 5.05312C47.4949 5.28749 47.7382 5.69999 47.8411 5.96249C48.0189 6.44999 48.0189 6.79687 48.0189 29.9906H46.054V18.4594C46.054 8.41874 46.0446 6.88124 45.9136 6.59999C45.8388 6.41249 45.6516 6.20624 45.4926 6.13124C45.2587 6.00937 44.6318 5.99062 38.0072 5.99062L38.0166 5.00624V4.01249Z" fill="#B9040F"/>
  </g>
  <defs>
    <clipPath id="clip0_contacts_social">
      <rect width="48" height="48" fill="white"/>
    </clipPath>
  </defs>
</svg>
