<svg xmlns="http://www.w3.org/2000/svg" width="48" height="48" viewBox="0 0 48 48" fill="none">
  <g clip-path="url(#clip0_social_ig)">
    <path fill-rule="evenodd" clip-rule="evenodd" d="M23.9792 0.00936687C24.665 -8.12951e-06 25.0173 0.0468669 25.5888 0.234367C25.9983 0.365617 26.5411 0.590617 26.8078 0.740617C27.065 0.890617 27.5126 1.20937 27.7983 1.46249C28.084 1.71562 28.4745 2.15624 28.665 2.43749C28.8554 2.71874 29.1316 3.24374 29.2745 3.60937C29.4269 3.96562 29.5792 4.58437 29.6173 4.96874C29.6554 5.35312 29.6554 5.94374 29.6173 6.28124C29.5697 6.61874 29.4269 7.18124 29.284 7.54687C29.1411 7.90312 28.8745 8.42812 28.684 8.70937C28.4935 8.99062 28.0935 9.43124 27.8078 9.68437C27.5221 9.93749 27.065 10.275 26.8078 10.4156C26.5411 10.5656 26.0554 10.7812 25.7126 10.8937C25.2078 11.0719 24.884 11.1094 23.9983 11.1094C23.1126 11.1094 22.7792 11.0719 22.284 10.9031C21.9411 10.7812 21.4078 10.5375 21.0935 10.3594C20.7792 10.1719 20.3126 9.82499 20.065 9.58124C19.8173 9.33749 19.465 8.92499 19.284 8.67187C19.1126 8.40937 18.865 7.95937 18.5221 7.10624L18.1888 7.17187C18.0078 7.20937 17.4459 7.38749 16.9507 7.56562C16.4554 7.74374 15.6173 8.09999 15.0935 8.34374C14.5697 8.59687 13.7983 8.99999 13.3792 9.25312C12.9602 9.49687 12.2078 10.0031 11.7126 10.3687C11.2173 10.7437 10.4269 11.3906 9.96019 11.8219C9.49353 12.2531 8.76972 13.0125 8.35067 13.5C7.94115 13.9875 7.33162 14.7937 7.00781 15.2812C6.684 15.7687 6.25543 16.4437 6.07448 16.7812C5.884 17.1187 5.56019 17.7656 5.35067 18.2344C5.14115 18.6937 4.81734 19.5375 4.62686 20.1094C4.43638 20.6719 4.17924 21.6281 4.04591 22.2187C3.9221 22.8094 3.77924 23.7094 3.7221 24.2156C3.66496 24.7125 3.61734 25.8 3.61734 26.625C3.61734 27.45 3.57924 28.2 3.53162 28.2937C3.49353 28.3781 3.33162 28.5094 3.17924 28.575C2.95067 28.6875 2.85543 28.6875 2.61734 28.575C2.46496 28.5094 2.284 28.35 2.21734 28.2187C2.13162 28.0594 2.09353 27.5156 2.09353 26.5312C2.09353 25.7344 2.14115 24.6937 2.18876 24.2344C2.24591 23.7656 2.36972 22.95 2.47448 22.4062C2.57924 21.8625 2.79829 20.9531 2.96019 20.3906C3.1221 19.8187 3.45543 18.8906 3.684 18.3281C3.91257 17.7562 4.29353 16.9406 4.5221 16.5C4.75067 16.0594 5.284 15.1969 5.69353 14.5781C6.10305 13.9594 6.76019 13.0687 7.16019 12.6094C7.56019 12.1406 8.23638 11.4187 8.67448 11.0062C9.11257 10.5844 9.76972 10.0031 10.1411 9.69374C10.5031 9.39374 11.3221 8.82187 11.9507 8.40937C12.5792 7.99687 13.6935 7.37812 14.4269 7.02187C15.1602 6.67499 16.3126 6.20624 16.9983 5.98124C17.6745 5.76562 18.2459 5.58749 18.265 5.57812C18.2745 5.57812 18.3316 5.26874 18.3792 4.89374C18.4364 4.52812 18.5888 3.93749 18.7221 3.58124C18.865 3.23437 19.1316 2.72812 19.3221 2.44687C19.5126 2.16562 19.903 1.72499 20.1888 1.47187C20.4745 1.21874 20.903 0.899992 21.1411 0.759367C21.3792 0.628117 21.9126 0.403117 22.3316 0.262492C22.9316 0.0656169 23.284 0.00936687 23.9697 0.00936687H23.9792ZM22.0745 1.98749C21.8554 2.09062 21.4269 2.41874 21.1221 2.70937C20.7792 3.03749 20.4554 3.44999 20.2935 3.79687C20.1411 4.10624 19.9792 4.63124 19.9316 4.96874C19.8745 5.34374 19.8745 5.81249 19.9316 6.18749C19.9792 6.52499 20.1411 7.04999 20.2935 7.35937C20.4364 7.66874 20.7888 8.14687 21.0745 8.42812C21.4078 8.76562 21.8173 9.05624 22.2935 9.27187C22.9697 9.59062 23.0554 9.60937 24.0078 9.60937C24.9602 9.60937 25.0459 9.59062 25.7221 9.27187C26.1888 9.05624 26.6173 8.75624 26.9411 8.42812C27.2269 8.14687 27.5792 7.66874 27.7221 7.35937C27.8745 7.04999 28.0364 6.54374 28.084 6.23437C28.1316 5.92499 28.1316 5.38124 28.084 5.01562C28.0269 4.58437 27.8935 4.15312 27.6935 3.75937C27.5126 3.41249 27.1697 2.96249 26.865 2.67187C26.5792 2.40937 26.1602 2.09062 25.9316 1.98749C25.7126 1.87499 25.284 1.71562 24.9792 1.64062C24.684 1.56562 24.2173 1.49999 23.9602 1.50937C23.6935 1.50937 23.2554 1.57499 22.9792 1.64999C22.7126 1.72499 22.3031 1.87499 22.0745 1.98749ZM33.1983 6.93749C33.3316 6.93749 33.7507 7.08749 34.1221 7.27499C34.503 7.46249 35.1602 7.82812 35.5792 8.09062C35.9983 8.34374 36.7507 8.84999 37.2459 9.22499C37.7411 9.59062 38.5983 10.3125 39.1411 10.8281C39.684 11.3437 40.4554 12.1406 40.8459 12.6094C41.2459 13.0687 41.8935 13.9406 42.2935 14.5312C42.684 15.1219 43.2364 16.0312 43.503 16.5469C43.7697 17.0625 44.1602 17.9062 44.3697 18.4219C44.5792 18.9375 44.8745 19.8 45.0364 20.3437C45.1888 20.8875 45.3697 21.5156 45.4173 21.75C45.4745 21.9844 45.5888 22.5937 45.6745 23.1094C45.7602 23.625 45.8554 24.8062 45.884 25.7344C45.9221 26.775 45.8935 27.8344 45.8269 28.5C45.7602 29.0906 45.6078 30.1219 45.2269 32.0156L45.4935 32.2031C45.6459 32.3062 46.0078 32.6062 46.2935 32.8687C46.5792 33.1406 46.9792 33.6281 47.1792 33.9562C47.3792 34.275 47.6459 34.8844 47.7697 35.2969C47.9316 35.8031 48.0078 36.2719 48.0078 36.75C48.0078 37.1531 47.9316 37.7719 47.8173 38.2031C47.7031 38.6156 47.465 39.225 47.2745 39.5625C47.084 39.9 46.6459 40.4437 46.3031 40.7812C45.9316 41.1469 45.3983 41.5312 45.0078 41.7375C44.6364 41.925 44.084 42.1406 43.7697 42.225C43.4554 42.3094 42.8173 42.375 42.3411 42.375C41.865 42.375 41.2269 42.3094 40.9126 42.225C40.5983 42.1406 40.0364 41.925 39.6745 41.7375C39.2459 41.5219 38.7697 41.1656 38.3411 40.7437C37.9697 40.3781 37.5411 39.825 37.3697 39.5156C37.1983 39.2062 36.9792 38.6156 36.865 38.2031C36.7602 37.7906 36.6745 37.1719 36.6745 36.8156C36.6745 36.4687 36.7221 35.9625 36.7792 35.7C36.8364 35.4281 37.0554 34.8469 37.265 34.4062C37.5697 33.7781 37.7983 33.4594 38.3792 32.8969C38.9126 32.3719 39.284 32.1 39.8173 31.8562C40.2078 31.6687 40.7697 31.4625 41.0554 31.4062C41.3411 31.3406 41.8554 31.275 42.1983 31.275C42.5411 31.2656 43.0269 31.2937 43.7697 31.4062L43.9316 30.6844C44.0269 30.2812 44.1507 29.6812 44.1983 29.3437C44.2554 29.0062 44.3316 27.975 44.3602 27.0469C44.3983 25.9875 44.3697 24.9937 44.3031 24.375C44.2364 23.8312 44.084 22.8844 43.9602 22.2656C43.8364 21.6469 43.5697 20.6719 43.3792 20.1094C43.1888 19.5375 42.8364 18.6375 42.5888 18.0937C42.3411 17.55 41.903 16.7062 41.6078 16.2187C41.3126 15.7312 40.7507 14.9062 40.3602 14.3906C39.9697 13.875 39.3126 13.0969 38.903 12.6656C38.484 12.2344 37.7411 11.5406 37.2459 11.1375C36.7507 10.725 35.9126 10.1062 35.3888 9.75937C34.865 9.41249 34.0364 8.92499 33.5602 8.67187C33.0269 8.39062 32.6364 8.11874 32.5792 7.99687C32.5316 7.87499 32.484 7.69687 32.484 7.59374C32.4935 7.48124 32.5983 7.29374 32.7221 7.17187C32.8459 7.04062 33.065 6.93749 33.1983 6.93749ZM40.3888 33.2437C40.1031 33.3937 39.6554 33.7312 39.3888 33.9844C39.1316 34.2469 38.7983 34.6875 38.6554 34.9687C38.5221 35.25 38.3602 35.6719 38.3031 35.9062C38.2459 36.1406 38.1983 36.5625 38.1983 36.8437C38.1983 37.125 38.2554 37.5656 38.3316 37.8281C38.3983 38.0812 38.5507 38.475 38.6554 38.6906C38.7697 38.9156 39.0459 39.2906 39.265 39.525C39.4935 39.7687 39.8459 40.0781 40.0554 40.2187C40.265 40.3594 40.684 40.5656 40.9792 40.6781C41.3792 40.8187 41.7507 40.875 42.2935 40.875C42.8173 40.875 43.2459 40.8094 43.6459 40.6781C43.9792 40.5656 44.4173 40.3594 44.6269 40.2187C44.8364 40.0781 45.1983 39.7594 45.4364 39.5062C45.665 39.2531 45.9602 38.8125 46.0935 38.5312C46.2173 38.25 46.3697 37.7437 46.4269 37.4062C46.4935 36.9562 46.4935 36.6281 46.4078 36.1594C46.3411 35.8125 46.1602 35.2781 46.0078 34.9687C45.8459 34.6594 45.5126 34.2094 45.2554 33.9562C45.0078 33.7125 44.5888 33.4031 44.3316 33.2625C44.0745 33.1219 43.5602 32.9437 43.1983 32.8687C42.8269 32.7844 42.4269 32.7281 42.2935 32.7281C42.1602 32.7281 41.7983 32.7844 41.484 32.85C41.1697 32.9156 40.6745 33.0937 40.3888 33.2437ZM5.96019 31.275C6.3221 31.3031 6.81734 31.3687 7.05543 31.425C7.29353 31.4812 7.77924 31.6594 8.15067 31.8281C8.56972 32.025 9.06496 32.3625 9.484 32.7469C9.84591 33.0844 10.3031 33.6 10.484 33.9C10.665 34.2094 10.9126 34.725 11.0364 35.0625C11.1697 35.4281 11.284 35.9906 11.3126 36.4687C11.3507 37.0312 11.3221 37.4719 11.2078 37.9687C11.1221 38.3531 10.9316 38.925 10.7792 39.2344C10.6364 39.5437 10.3316 40.0219 9.7221 40.7812L10.4459 41.4094C10.8459 41.7656 11.5602 42.3281 12.0459 42.675C12.5221 43.0219 13.3602 43.5656 13.9126 43.875C14.465 44.1844 15.4078 44.6437 16.0078 44.8969C16.6078 45.15 17.5507 45.4781 18.1031 45.6375C18.6554 45.7969 19.5316 46.0125 20.0554 46.1156C20.5792 46.2187 21.5411 46.35 22.1983 46.4156C22.9126 46.4812 23.9411 46.5 24.7697 46.4719C25.5316 46.4344 26.5602 46.35 27.0554 46.275C27.5507 46.2 28.3888 46.0312 28.9126 45.9C29.4364 45.7687 30.2935 45.5156 30.8173 45.3375C31.3411 45.1594 32.1792 44.8312 32.6745 44.5969C33.1697 44.3625 34.0459 43.9031 34.6269 43.5562C35.1983 43.2187 35.7697 42.9375 35.884 42.9375C36.0078 42.9375 36.1792 42.975 36.265 43.0219C36.3602 43.0594 36.4935 43.2187 36.5602 43.3687C36.6745 43.5937 36.6745 43.6875 36.5602 43.9219C36.484 44.0906 36.1792 44.3625 35.8173 44.6062C35.4745 44.8219 34.6173 45.2906 33.9126 45.6469C33.2078 46.0031 32.1316 46.4719 31.5316 46.6875C30.9316 46.9031 29.9221 47.2031 29.2935 47.3531C28.665 47.5031 27.6745 47.7 27.1031 47.7937C26.3411 47.9062 25.4935 47.9531 24.0078 47.9531C22.4935 47.9531 21.6745 47.9062 20.865 47.7844C20.265 47.6906 19.4078 47.5312 18.9602 47.4281C18.5126 47.325 17.6173 47.0625 16.9602 46.8469C16.3031 46.6312 15.1507 46.1625 14.3888 45.7875C13.6269 45.4219 12.5983 44.85 12.1031 44.5312C11.6078 44.2125 10.9221 43.7344 10.5792 43.4719C10.2364 43.2094 9.62686 42.7031 8.47448 41.6719L7.93162 41.925C7.63638 42.0656 7.19829 42.2156 6.96019 42.2719C6.7221 42.3281 6.14115 42.375 5.67448 42.375C5.19829 42.375 4.56019 42.3094 4.24591 42.225C3.93162 42.1406 3.36972 41.925 3.00781 41.7375C2.61734 41.5312 2.084 41.1469 1.71257 40.7812C1.36972 40.4437 0.931622 39.9 0.741146 39.5625C0.55067 39.225 0.312574 38.6344 0.207813 38.25C0.084003 37.8281 0.0078125 37.2656 0.0078125 36.8437C0.0078125 36.4219 0.084003 35.8594 0.207813 35.4375C0.312574 35.0531 0.541146 34.4812 0.703051 34.1719C0.874479 33.8719 1.24591 33.3656 1.53162 33.0656C1.81734 32.7562 2.29353 32.3625 2.57924 32.175C2.86496 31.9875 3.36972 31.7344 3.69353 31.6219C4.02686 31.5 4.5221 31.3687 4.78876 31.3219C5.06496 31.2656 5.58877 31.2469 5.96019 31.275ZM3.73162 33.2437C3.45543 33.3937 3.00781 33.7125 2.76019 33.9562C2.50305 34.2094 2.16019 34.6594 2.00781 34.9687C1.84591 35.2781 1.67448 35.8125 1.60781 36.1594C1.5221 36.6281 1.5221 36.9562 1.58876 37.4062C1.64591 37.7437 1.79829 38.25 1.9221 38.5312C2.05543 38.8125 2.35067 39.2531 2.57924 39.5062C2.81734 39.7594 3.17924 40.0781 3.38876 40.2187C3.59829 40.3594 4.03638 40.5656 4.36019 40.6781C4.76019 40.8094 5.19829 40.875 5.69353 40.875C6.16972 40.875 6.62686 40.8187 6.96019 40.7062C7.24591 40.6031 7.65543 40.425 7.86496 40.2937C8.07448 40.1625 8.44591 39.8531 8.684 39.6C8.9221 39.3469 9.22686 38.925 9.36019 38.6719C9.49353 38.4094 9.65543 37.9687 9.7221 37.6875C9.79829 37.3594 9.82686 36.9094 9.78877 36.4687C9.74115 35.9344 9.64591 35.6062 9.38877 35.0812C9.19829 34.6875 8.86496 34.2187 8.59829 33.9562C8.34115 33.7125 7.9221 33.4031 7.66496 33.2625C7.40781 33.1219 6.89353 32.9437 6.53162 32.8687C6.16019 32.7844 5.76019 32.7281 5.62686 32.7281C5.49353 32.7281 5.13162 32.7844 4.81734 32.85C4.50305 32.9156 4.01734 33.0937 3.73162 33.2437ZM24.4078 14.5875C25.0269 14.6062 25.865 14.6906 26.265 14.775C26.6745 14.85 27.3792 15.0469 27.8364 15.1969C28.303 15.3469 28.9888 15.6187 29.3602 15.8062C29.7411 15.9937 30.3316 16.3312 30.6745 16.5469C31.0173 16.7719 31.5792 17.1937 31.9221 17.5031C32.265 17.8031 32.7792 18.3 33.0554 18.6094C33.3316 18.9187 33.7792 19.5094 34.0554 19.9219C34.3316 20.3344 34.684 20.925 34.8459 21.2344C34.9983 21.5437 35.265 22.2 35.4269 22.6875C35.5983 23.175 35.7983 23.9344 35.8745 24.375C35.9507 24.8156 36.0173 25.7437 36.0173 26.4375C36.0173 27.2156 35.9507 28.0125 35.8554 28.5C35.7697 28.9406 35.5983 29.6344 35.465 30.0469C35.3316 30.4594 35.0459 31.1531 34.8269 31.5937C34.6078 32.0344 34.1983 32.7281 33.9126 33.1312C33.6269 33.5437 33.084 34.1906 32.7221 34.575C32.3507 34.9594 31.6935 35.5406 31.2459 35.8781C30.7983 36.2062 30.0269 36.675 29.5316 36.9281C29.0364 37.1812 28.2364 37.5187 27.7697 37.6687C27.2935 37.8281 26.5031 38.0156 26.0078 38.1C25.5126 38.1844 24.6078 38.25 24.0078 38.25C23.4078 38.25 22.5221 38.1844 22.0554 38.1094C21.5792 38.025 20.8554 37.8656 20.4364 37.7344C20.0173 37.6125 19.1983 37.275 18.6269 36.9937C18.0459 36.7125 17.2173 36.2062 16.7697 35.8781C16.3221 35.55 15.6269 34.9219 15.2173 34.4906C14.8078 34.0594 14.284 33.4312 14.0554 33.0937C13.8269 32.7562 13.465 32.1469 13.2554 31.7344C13.0364 31.3219 12.7411 30.6 12.5888 30.1406C12.4364 29.6719 12.2364 28.9406 12.1507 28.5C12.0554 28.0125 11.9983 27.2156 11.9983 26.4375C11.9983 25.7344 12.065 24.8156 12.1411 24.375C12.2173 23.9344 12.4078 23.1937 12.5602 22.7344C12.7126 22.2656 12.9983 21.5719 13.1983 21.1875C13.3983 20.8031 13.7792 20.1656 14.0459 19.7812C14.3031 19.3969 14.7411 18.8437 14.9983 18.5625C15.2554 18.2812 15.7507 17.8031 16.0935 17.5031C16.4364 17.2031 16.9983 16.7719 17.3411 16.5562C17.684 16.3312 18.2364 16.0125 18.5792 15.8437C18.9221 15.675 19.4554 15.4406 19.7697 15.3281C20.084 15.2062 20.7031 15.0187 21.1507 14.9062C21.5983 14.7937 22.2554 14.6719 22.6269 14.625C22.9888 14.5781 23.7983 14.5594 24.4078 14.5875ZM22.1507 16.2281C21.7792 16.2844 21.1602 16.4437 20.7697 16.5656C20.3792 16.6875 19.7126 16.9687 19.2935 17.175C18.8745 17.3812 18.2745 17.7281 17.9602 17.9531C17.6459 18.1781 17.1126 18.6 16.7792 18.9C16.4459 19.2094 15.9316 19.7719 15.6364 20.1562C15.3411 20.5406 14.9126 21.2156 14.684 21.6562C14.4554 22.0969 14.1602 22.7437 14.0364 23.1094C13.9126 23.4656 13.7507 24.1031 13.665 24.5156C13.5888 24.9375 13.5221 25.7812 13.5221 26.4375C13.5221 27.0844 13.5697 27.8437 13.6269 28.125C13.684 28.4062 13.8078 28.9594 13.9221 29.3437C14.0269 29.7281 14.3221 30.4687 14.5792 30.9844C14.8459 31.5 15.265 32.1937 15.5221 32.5312C15.7792 32.8687 16.3411 33.4781 16.7792 33.8906C17.2173 34.3031 17.8364 34.8094 18.1507 35.0156C18.465 35.2219 18.9983 35.5219 19.3411 35.6906C19.684 35.8594 20.3031 36.1125 20.7221 36.2437C21.1411 36.3844 21.8078 36.5531 22.1983 36.6187C22.5888 36.6844 23.4078 36.7406 24.0078 36.7406C24.6078 36.7406 25.4269 36.6844 25.8173 36.6187C26.2078 36.5531 26.8745 36.3844 27.2935 36.2437C27.7126 36.1125 28.3316 35.8594 28.6745 35.6906C29.0173 35.5219 29.5507 35.2219 29.865 35.0156C30.1792 34.8094 30.7792 34.3219 31.1888 33.9375C31.6078 33.5531 32.1983 32.8969 32.5126 32.4844C32.8173 32.0719 33.2364 31.3969 33.4364 30.9844C33.6364 30.5719 33.8935 29.9812 33.9983 29.6719C34.0935 29.3625 34.2554 28.7719 34.3411 28.3594C34.4364 27.9 34.4935 27.1594 34.4935 26.4375C34.4935 25.7437 34.4269 24.9375 34.3316 24.4687C34.2459 24.0281 34.0745 23.3719 33.9411 23.0156C33.8078 22.65 33.5221 22.0219 33.3126 21.6094C33.0935 21.1969 32.6745 20.5406 32.3792 20.1562C32.084 19.7719 31.5697 19.2 31.2364 18.9C30.9031 18.6 30.3697 18.1687 30.0554 17.9437C29.7411 17.7281 29.1411 17.3812 28.7221 17.175C28.3031 16.9687 27.6935 16.7062 27.3602 16.6031C27.0364 16.4906 26.465 16.3406 26.1031 16.2656C25.7316 16.1906 24.9792 16.1062 24.4078 16.0875C23.8459 16.0687 23.2554 16.0594 23.1031 16.0875C22.9411 16.1062 22.5126 16.1719 22.1507 16.2281ZM24.1983 19.8187C24.7507 19.8375 25.0554 19.9125 25.5316 20.1281C25.8745 20.2781 26.3031 20.5312 26.484 20.6906C26.665 20.8406 26.9507 21.1781 27.1221 21.4312C27.2935 21.6844 27.4935 22.0781 27.5792 22.3125C27.6745 22.5656 27.7411 23.0344 27.7411 23.4844C27.7411 24.0469 27.684 24.375 27.5221 24.7969C27.3983 25.1062 27.1411 25.5469 26.6078 26.2031L27.2364 26.5219C27.665 26.7469 28.1316 27.1125 28.7221 27.6937C29.4173 28.3781 29.665 28.7062 29.9888 29.3437C30.2078 29.7844 30.4459 30.4125 30.5316 30.75C30.6078 31.0875 30.6745 31.6312 30.6745 31.9687C30.684 32.4375 30.6364 32.6344 30.3126 33.0469H17.7031L17.5221 32.8125C17.3792 32.6344 17.3316 32.4375 17.3411 31.9687C17.3411 31.6312 17.4078 31.0875 17.484 30.75C17.5697 30.4125 17.8078 29.7844 18.0269 29.3437C18.3507 28.7062 18.5983 28.3781 19.2935 27.6937C19.884 27.1125 20.3411 26.7469 21.4173 26.2031L21.1031 25.8281C20.9221 25.6219 20.684 25.2375 20.5697 24.9844C20.4554 24.7219 20.3316 24.2812 20.2935 24C20.2554 23.7187 20.2554 23.25 20.2935 22.9687C20.3316 22.6875 20.465 22.2187 20.5983 21.9375C20.7316 21.6562 21.0078 21.2344 21.2173 21C21.4269 20.7656 21.8459 20.4469 22.1602 20.2781C22.465 20.1094 22.8935 19.9312 23.1031 19.8844C23.3126 19.8281 23.8078 19.8 24.1983 19.8187ZM22.5792 21.8156C22.3697 21.9844 22.1031 22.3031 21.9983 22.5187C21.8554 22.7906 21.7888 23.1 21.7888 23.4844C21.7888 23.8687 21.8459 24.1594 21.9792 24.4219C22.084 24.6281 22.3507 24.9562 22.5697 25.1437C22.7792 25.3406 23.1221 25.5375 23.3126 25.5937C23.5126 25.6406 23.8269 25.6875 24.0078 25.6875C24.1888 25.6875 24.4935 25.65 24.6745 25.5937C24.8554 25.5469 25.1983 25.35 25.4269 25.1531C25.6554 24.9562 25.9316 24.6281 26.0364 24.4219C26.1634 24.1719 26.2269 23.8594 26.2269 23.4844C26.2269 23.1094 26.1634 22.7969 26.0364 22.5469C25.9316 22.3406 25.6745 22.0219 25.465 21.8437C25.2554 21.6656 24.9126 21.4594 24.7126 21.4031C24.5126 21.3375 24.1697 21.2906 23.9602 21.2906C23.7507 21.2906 23.4364 21.3469 23.265 21.4031C23.0935 21.4687 22.7792 21.6562 22.5792 21.8156ZM21.7792 27.7125C21.4745 27.8625 20.9792 28.1719 20.6935 28.4062C20.3983 28.6406 19.9888 29.0812 19.7697 29.3906C19.5507 29.7 19.284 30.1875 19.1792 30.4687C19.0745 30.75 18.9602 31.125 18.9221 31.2844L18.865 31.5937H29.1507C29.0554 31.125 28.9507 30.7687 28.8554 30.5156C28.7602 30.2531 28.5602 29.8594 28.4078 29.625C28.2554 29.3906 27.9888 29.0437 27.8078 28.8375C27.6269 28.6406 27.2078 28.2937 26.865 28.0781C26.5221 27.8531 25.9697 27.5812 25.6269 27.4687C25.284 27.3562 24.6745 27.2531 24.2459 27.225C23.7983 27.2062 23.2459 27.2437 22.9126 27.3187C22.5983 27.3844 22.0935 27.5625 21.7792 27.7125Z" fill="#B9040F"/>
  </g>
  <defs>
    <clipPath id="clip0_social_ig">
      <rect width="48" height="48" fill="white"/>
    </clipPath>
  </defs>
</svg>
