<svg width="32" height="32" viewBox="0 0 32 32" fill="none" xmlns="http://www.w3.org/2000/svg">
<path d="M7.9987 14.6669V8.26693C7.9987 6.77345 7.9987 6.02616 8.28935 5.45573C8.54501 4.95396 8.95266 4.54631 9.45443 4.29065C10.0249 4 10.7722 4 12.2656 4H18.2316C18.3951 4 18.538 4 18.6654 4.00116M26.6641 12C26.6653 12.1275 26.6654 12.2706 26.6654 12.4342V23.7381C26.6654 25.2286 26.6654 25.974 26.375 26.5438C26.1193 27.0456 25.7106 27.454 25.2088 27.7096C24.6389 28 23.8934 28 22.4028 28L17.332 28M26.6641 12C26.6605 11.6193 26.6463 11.3783 26.5911 11.1484C26.5258 10.8763 26.4176 10.6162 26.2714 10.3776C26.1065 10.1085 25.8772 9.87851 25.416 9.41731L21.2487 5.25C20.7878 4.78909 20.5568 4.55809 20.2878 4.39323C20.0492 4.24702 19.7892 4.139 19.5172 4.07368C19.2871 4.01846 19.0462 4.00463 18.6654 4.00116M26.6641 12H26.6656M26.6641 12H22.9279C21.4374 12 20.691 12 20.1211 11.7096C19.6193 11.454 19.2117 11.0452 18.956 10.5435C18.6654 9.97302 18.6654 9.22681 18.6654 7.73333V4.00116M11.9987 18.6667L14.6654 21.3333M5.33203 28V24.6667L15.332 14.6667L18.6654 18L8.66536 28H5.33203Z" stroke="#B9040F" stroke-width="2" stroke-linecap="round" stroke-linejoin="round"/>
</svg>
