<svg width="32" height="32" viewBox="0 0 32 32" fill="none" xmlns="http://www.w3.org/2000/svg">
<path d="M6.66797 13.2305C6.66797 19.6996 12.3273 25.0492 14.8322 27.1003C15.1907 27.3938 15.3721 27.5423 15.6396 27.6176C15.8478 27.6763 16.1544 27.6763 16.3626 27.6176C16.6306 27.5422 16.8107 27.3951 17.1706 27.1005C19.6755 25.0494 25.3345 19.7002 25.3345 13.2311C25.3345 10.7829 24.3513 8.43473 22.6009 6.70363C20.8506 4.97252 18.4768 4 16.0014 4C13.5261 4 11.152 4.97267 9.40164 6.70378C7.6513 8.43488 6.66797 10.7823 6.66797 13.2305Z" stroke="#B9040F" stroke-width="2" stroke-linecap="round" stroke-linejoin="round"/>
<path d="M13.3346 12C13.3346 13.4728 14.5285 14.6667 16.0013 14.6667C17.4741 14.6667 18.668 13.4728 18.668 12C18.668 10.5272 17.4741 9.33333 16.0013 9.33333C14.5285 9.33333 13.3346 10.5272 13.3346 12Z" stroke="#B9040F" stroke-width="2" stroke-linecap="round" stroke-linejoin="round"/>
</svg>
