<svg width="32" height="32" viewBox="0 0 32 32" fill="none" xmlns="http://www.w3.org/2000/svg">
<path d="M28 26.6665C28 24.3444 25.7738 22.3688 22.6667 21.6367M20 26.6666C20 23.7211 16.4183 21.3333 12 21.3333C7.58172 21.3333 4 23.7211 4 26.6666M20 17.3333C22.9455 17.3333 25.3333 14.9455 25.3333 12C25.3333 9.05444 22.9455 6.66663 20 6.66663M12 17.3333C9.05448 17.3333 6.66667 14.9455 6.66667 12C6.66667 9.05444 9.05448 6.66663 12 6.66663C14.9455 6.66663 17.3333 9.05444 17.3333 12C17.3333 14.9455 14.9455 17.3333 12 17.3333Z" stroke="#B9040F" stroke-width="2" stroke-linecap="round" stroke-linejoin="round"/>
</svg>
