<svg xmlns="http://www.w3.org/2000/svg" width="182" height="68" viewBox="0 0 182 68" fill="none">
  <g opacity="0.6">
    <path d="M75.7464 2.47932C75.7464 3.83594 76.7895 4.9357 78.0763 4.9357C79.3631 4.9357 80.4062 3.83594 80.4062 2.47932C80.4062 1.12271 79.3631 0.0229492 78.0763 0.0229492C76.7895 0.0229492 75.7464 1.12271 75.7464 2.47932Z" fill="white" fill-opacity="0.72"/>
    <path d="M56.801 2.47932C56.801 3.83594 57.8442 4.9357 59.131 4.9357C60.4178 4.9357 61.4609 3.83594 61.4609 2.47932C61.4609 1.12271 60.4178 0.0229492 59.131 0.0229492C57.8442 0.0229492 56.801 1.12271 56.801 2.47932Z" fill="white" fill-opacity="0.72"/>
    <path d="M37.8714 2.47932C37.8714 3.83594 38.9145 4.9357 40.2013 4.9357C41.4881 4.9357 42.5312 3.83594 42.5312 2.47932C42.5312 1.12271 41.4881 0.0229492 40.2013 0.0229492C38.9145 0.0229492 37.8714 1.12271 37.8714 2.47932Z" fill="white" fill-opacity="0.72"/>
    <path d="M21.256 4.91275C19.9811 4.91275 18.9261 3.8236 18.9261 2.45637C18.9261 1.08915 19.9591 0 21.256 0C22.5529 0 23.5859 1.08915 23.5859 2.45637C23.5859 3.8236 22.5529 4.91275 21.256 4.91275Z" fill="white" fill-opacity="0.72"/>
    <path d="M2.33413 4.91275C1.05925 4.91275 0.00419092 3.8236 0.00419092 2.45637C0.00419092 1.08915 1.03727 0 2.33413 0C3.63098 0 4.66406 1.08915 4.66406 2.45637C4.66406 3.8236 3.63098 4.91275 2.33413 4.91275Z" fill="white" fill-opacity="0.72"/>
    <path d="M170.395 18.1444C170.395 19.501 171.438 20.6007 172.725 20.6007C174.012 20.6007 175.055 19.501 175.055 18.1444C175.055 16.7877 174.012 15.688 172.725 15.688C171.438 15.688 170.395 16.7877 170.395 18.1444Z" fill="white" fill-opacity="0.72"/>
    <path d="M151.465 18.1444C151.465 19.501 152.508 20.6007 153.795 20.6007C155.082 20.6007 156.125 19.501 156.125 18.1444C156.125 16.7877 155.082 15.688 153.795 15.688C152.508 15.688 151.465 16.7877 151.465 18.1444Z" fill="white" fill-opacity="0.72"/>
    <path d="M132.543 18.1444C132.543 19.501 133.586 20.6007 134.873 20.6007C136.16 20.6007 137.203 19.501 137.203 18.1444C137.203 16.7877 136.16 15.688 134.873 15.688C133.586 15.688 132.543 16.7877 132.543 18.1444Z" fill="white" fill-opacity="0.72"/>
    <path d="M115.924 20.6007C114.649 20.6007 113.594 19.5116 113.594 18.1444C113.594 16.7771 114.627 15.688 115.924 15.688C117.221 15.688 118.254 16.7771 118.254 18.1444C118.254 19.5116 117.221 20.6007 115.924 20.6007Z" fill="white" fill-opacity="0.72"/>
    <path d="M96.9982 20.6007C95.7233 20.6007 94.6682 19.5116 94.6682 18.1444C94.6682 16.7771 95.7013 15.688 96.9982 15.688C98.295 15.688 99.3281 16.7771 99.3281 18.1444C99.3281 19.5116 98.295 20.6007 96.9982 20.6007Z" fill="white" fill-opacity="0.72"/>
    <path d="M75.7464 18.1444C75.7464 19.501 76.7895 20.6007 78.0763 20.6007C79.3631 20.6007 80.4062 19.501 80.4062 18.1444C80.4062 16.7877 79.3631 15.688 78.0763 15.688C76.7895 15.688 75.7464 16.7877 75.7464 18.1444Z" fill="white" fill-opacity="0.72"/>
    <path d="M56.7971 18.1444C56.7971 19.501 57.8403 20.6007 59.1271 20.6007C60.4139 20.6007 61.457 19.501 61.457 18.1444C61.457 16.7877 60.4139 15.688 59.1271 15.688C57.8403 15.688 56.7971 16.7877 56.7971 18.1444Z" fill="white" fill-opacity="0.72"/>
    <path d="M37.8714 18.1444C37.8714 19.501 38.9145 20.6007 40.2013 20.6007C41.4881 20.6007 42.5312 19.501 42.5312 18.1444C42.5312 16.7877 41.4881 15.688 40.2013 15.688C38.9145 15.688 37.8714 16.7877 37.8714 18.1444Z" fill="white" fill-opacity="0.72"/>
    <path d="M21.256 20.6007C19.9811 20.6007 18.9261 19.5116 18.9261 18.1444C18.9261 16.7771 19.9591 15.688 21.256 15.688C22.5529 15.688 23.5859 16.7771 23.5859 18.1444C23.5859 19.5116 22.5529 20.6007 21.256 20.6007Z" fill="white" fill-opacity="0.72"/>
    <path d="M2.33022 20.6007C1.05535 20.6007 0.000284672 19.5116 0.000284672 18.1444C0.000284672 16.7771 1.03337 15.688 2.33022 15.688C3.62707 15.688 4.66016 16.7771 4.66016 18.1444C4.66016 19.5116 3.62707 20.6007 2.33022 20.6007Z" fill="white" fill-opacity="0.72"/>
    <path d="M172.725 36.2897C171.45 36.2897 170.395 35.2006 170.395 33.8333C170.395 32.4661 171.428 31.377 172.725 31.377C174.022 31.377 175.055 32.4661 175.055 33.8333C175.055 35.2006 174.022 36.2897 172.725 36.2897Z" fill="white" fill-opacity="0.72"/>
    <path d="M153.795 36.2897C152.52 36.2897 151.465 35.2006 151.465 33.8333C151.465 32.4661 152.498 31.377 153.795 31.377C155.092 31.377 156.125 32.4661 156.125 33.8333C156.125 35.2006 155.092 36.2897 153.795 36.2897Z" fill="white" fill-opacity="0.72"/>
    <path d="M134.873 36.2897C133.598 36.2897 132.543 35.2006 132.543 33.8333C132.543 32.4661 133.576 31.377 134.873 31.377C136.17 31.377 137.203 32.4661 137.203 33.8333C137.203 35.2006 136.17 36.2897 134.873 36.2897Z" fill="white" fill-opacity="0.72"/>
    <path d="M115.924 36.2897C114.649 36.2897 113.594 35.2006 113.594 33.8333C113.594 32.4661 114.627 31.377 115.924 31.377C117.221 31.377 118.254 32.4661 118.254 33.8333C118.254 35.2006 117.221 36.2897 115.924 36.2897Z" fill="white" fill-opacity="0.72"/>
    <path d="M96.9982 36.2897C95.7233 36.2897 94.6682 35.2006 94.6682 33.8333C94.6682 32.4661 95.7013 31.377 96.9982 31.377C98.295 31.377 99.3281 32.4661 99.3281 33.8333C99.3281 35.2006 98.295 36.2897 96.9982 36.2897Z" fill="white" fill-opacity="0.72"/>
    <path d="M78.0763 36.2897C76.8014 36.2897 75.7464 35.2006 75.7464 33.8333C75.7464 32.4661 76.7795 31.377 78.0763 31.377C79.3732 31.377 80.4062 32.4661 80.4062 33.8333C80.4062 35.2006 79.3732 36.2897 78.0763 36.2897Z" fill="white" fill-opacity="0.72"/>
    <path d="M153.795 51.954C152.52 51.954 151.465 50.8649 151.465 49.4976C151.465 48.1304 152.498 47.0413 153.795 47.0413C155.092 47.0413 156.125 48.1304 156.125 49.4976C156.125 50.8649 155.092 51.954 153.795 51.954Z" fill="white" fill-opacity="0.72"/>
    <path d="M134.869 51.954C133.594 51.954 132.539 50.8649 132.539 49.4976C132.539 48.1304 133.572 47.0413 134.869 47.0413C136.166 47.0413 137.199 48.1304 137.199 49.4976C137.199 50.8649 136.166 51.954 134.869 51.954Z" fill="white" fill-opacity="0.72"/>
    <path d="M115.92 51.954C114.645 51.954 113.59 50.8649 113.59 49.4976C113.59 48.1304 114.623 47.0413 115.92 47.0413C117.217 47.0413 118.25 48.1304 118.25 49.4976C118.25 50.8649 117.217 51.954 115.92 51.954Z" fill="white" fill-opacity="0.72"/>
    <path d="M96.9982 51.954C95.7233 51.954 94.6682 50.8649 94.6682 49.4976C94.6682 48.1304 95.7013 47.0413 96.9982 47.0413C98.295 47.0413 99.3281 48.1304 99.3281 49.4976C99.3281 50.8649 98.295 51.954 96.9982 51.954Z" fill="white" fill-opacity="0.72"/>
    <path d="M78.0685 51.954C76.7936 51.954 75.7386 50.8649 75.7386 49.4976C75.7386 48.1304 76.7716 47.0413 78.0685 47.0413C79.3653 47.0413 80.3984 48.1304 80.3984 49.4976C80.3984 50.8649 79.3653 51.954 78.0685 51.954Z" fill="white" fill-opacity="0.72"/>
    <path d="M151.465 65.2083C151.465 66.5649 152.508 67.6647 153.795 67.6647C155.082 67.6647 156.125 66.5649 156.125 65.2083C156.125 63.8517 155.082 62.752 153.795 62.752C152.508 62.752 151.465 63.8517 151.465 65.2083Z" fill="white" fill-opacity="0.72"/>
    <path d="M132.539 65.2083C132.539 66.5649 133.582 67.6647 134.869 67.6647C136.156 67.6647 137.199 66.5649 137.199 65.2083C137.199 63.8517 136.156 62.752 134.869 62.752C133.582 62.752 132.539 63.8517 132.539 65.2083Z" fill="white" fill-opacity="0.72"/>
    <path d="M115.92 67.6422C114.645 67.6422 113.59 66.5531 113.59 65.1859C113.59 63.8186 114.623 62.7295 115.92 62.7295C117.217 62.7295 118.25 63.8186 118.25 65.1859C118.25 66.5531 117.217 67.6422 115.92 67.6422Z" fill="white" fill-opacity="0.72"/>
    <path d="M96.9982 67.6422C95.7233 67.6422 94.6682 66.5531 94.6682 65.1859C94.6682 63.8186 95.7013 62.7295 96.9982 62.7295C98.295 62.7295 99.3281 63.8186 99.3281 65.1859C99.3281 66.5531 98.295 67.6422 96.9982 67.6422Z" fill="white" fill-opacity="0.72"/>
    <path d="M75.7386 65.2083C75.7386 66.5649 76.7817 67.6647 78.0685 67.6647C79.3553 67.6647 80.3984 66.5649 80.3984 65.2083C80.3984 63.8517 79.3553 62.752 78.0685 62.752C76.7817 62.752 75.7386 63.8517 75.7386 65.2083Z" fill="white" fill-opacity="0.72"/>
    <path d="M56.7932 65.2083C56.7932 66.5649 57.8364 67.6647 59.1232 67.6647C60.41 67.6647 61.4531 66.5649 61.4531 65.2083C61.4531 63.8517 60.41 62.752 59.1232 62.752C57.8364 62.752 56.7932 63.8517 56.7932 65.2083Z" fill="white" fill-opacity="0.72"/>
    <path d="M37.8714 65.2083C37.8714 66.5649 38.9145 67.6647 40.2013 67.6647C41.4881 67.6647 42.5312 66.5649 42.5312 65.2083C42.5312 63.8517 41.4881 62.752 40.2013 62.752C38.9145 62.752 37.8714 63.8517 37.8714 65.2083Z" fill="white" fill-opacity="0.72"/>
  </g>
</svg>
